<?xml version="1.0" encoding="UTF-8"?>
<svg version="1.1" xmlns="http://www.w3.org/2000/svg" width="138" height="183">
<path d="M0 0 C45.54 0 91.08 0 138 0 C138 60.39 138 120.78 138 183 C92.46 183 46.92 183 0 183 C0 122.61 0 62.22 0 0 Z " fill="#FEFEFE" transform="translate(0,0)"/>
<path d="M0 0 C8.05411979 4.58399371 12.72137329 10.59765325 15.5 19.4375 C16.05437062 22.54593526 16.49588975 25.65786882 16.9296875 28.78515625 C17.64744818 32.12323503 19.37770371 33.82000125 21.5 36.4375 C21.84119741 39.46691947 21.73801756 42.40277607 21.5 45.4375 C22.08265625 45.70433594 22.6653125 45.97117188 23.265625 46.24609375 C37.29171283 53.72503918 47.06588692 70.02011873 52.5 84.4375 C51.27681141 99.84967618 39.52753107 115.90502672 28.84765625 126.29296875 C27.5 127.4375 27.5 127.4375 26.5 127.4375 C26.44392578 125.48070312 26.44392578 125.48070312 26.38671875 123.484375 C26.32097647 121.71872515 26.25453214 119.95310135 26.1875 118.1875 C26.16494141 117.33414063 26.14238281 116.48078125 26.11914062 115.6015625 C25.83179803 108.60085212 24.394261 102.17167467 22.5 95.4375 C21.70827393 95.79054199 20.91654785 96.14358398 20.10083008 96.50732422 C17.14722783 97.82383641 14.19324779 99.13949625 11.23901367 100.45458984 C9.96347224 101.0226107 8.68807943 101.59096541 7.4128418 102.15966797 C5.57380187 102.97973185 3.73417239 103.79847321 1.89453125 104.6171875 C0.23707886 105.35557861 0.23707886 105.35557861 -1.45385742 106.10888672 C-4.11822025 107.27098198 -6.79416289 108.37630107 -9.5 109.4375 C-8.06682448 112.50204182 -6.62769376 115.56375093 -5.1875 118.625 C-4.78337891 119.48931641 -4.37925781 120.35363281 -3.96289062 121.24414062 C-1.56341974 126.35401017 -1.56341974 126.35401017 1.35546875 131.17578125 C2.95543355 134.33748643 2.30151044 136.00678088 1.5 139.4375 C0.52018359 141.77955026 -0.54095507 144.08845357 -1.66015625 146.3671875 C-1.96948593 147.00238312 -2.27881561 147.63757874 -2.59751892 148.29202271 C-3.57862542 150.30247898 -4.57034579 152.30747655 -5.5625 154.3125 C-6.23313238 155.68194395 -6.90306159 157.05173249 -7.57226562 158.421875 C-9.20672971 161.76444095 -10.85074925 165.10220045 -12.5 168.4375 C-17.1530569 162.97262248 -19.82030914 156.91170656 -22.8125 150.4375 C-23.37517578 149.261875 -23.93785156 148.08625 -24.51757812 146.875 C-25.30745117 145.1734375 -25.30745117 145.1734375 -26.11328125 143.4375 C-26.83704956 141.890625 -26.83704956 141.890625 -27.57543945 140.3125 C-29.23069157 135.16535214 -27.27071922 131.59794528 -24.99609375 126.91796875 C-24.50302734 125.89638672 -24.00996094 124.87480469 -23.50195312 123.82226562 C-22.98568359 122.76716797 -22.46941406 121.71207031 -21.9375 120.625 C-21.41736328 119.55056641 -20.89722656 118.47613281 -20.36132812 117.36914062 C-19.0792955 114.72274301 -17.79203889 112.0790229 -16.5 109.4375 C-17.45132813 109.14101562 -18.40265625 108.84453125 -19.3828125 108.5390625 C-22.32555745 107.49914511 -23.57037193 106.79593431 -25.5 104.4375 C-22.53 104.9325 -22.53 104.9325 -19.5 105.4375 C-19.94730469 104.99019531 -20.39460938 104.54289062 -20.85546875 104.08203125 C-22.10807359 102.82942641 -23.35931351 101.57545554 -24.609375 100.3203125 C-25.75504295 99.17937872 -26.90907515 98.04665097 -28.078125 96.9296875 C-29.253937 95.80117829 -30.38197435 94.62328478 -31.5 93.4375 C-31.5 92.7775 -31.5 92.1175 -31.5 91.4375 C-32.16 91.4375 -32.82 91.4375 -33.5 91.4375 C-33.561875 90.86 -33.62375 90.2825 -33.6875 89.6875 C-34.35370349 87.2227137 -34.35370349 87.2227137 -36.8125 85.61328125 C-41.87172731 81.51736612 -45.89490733 75.94428705 -47.015625 69.44921875 C-47.0947364 64.57727489 -46.48042108 60.91148771 -44.5 56.4375 C-53.79652417 61.65739302 -61.10148685 65.98966233 -67.203125 74.86328125 C-67.63109375 75.38277344 -68.0590625 75.90226562 -68.5 76.4375 C-69.16 76.4375 -69.82 76.4375 -70.5 76.4375 C-73.21224872 82.79154748 -74.04875386 87.36781022 -71.5625 93.9375 C-70.58566903 96.12435765 -69.56484136 98.29211938 -68.5 100.4375 C-68.02691406 101.41203125 -67.55382812 102.3865625 -67.06640625 103.390625 C-64.19046125 108.97104945 -60.84343178 113.84460438 -56.8203125 118.66015625 C-55.5 120.4375 -55.5 120.4375 -55.5 122.4375 C-54.51 122.4375 -53.52 122.4375 -52.5 122.4375 C-52.5 124.0875 -52.5 125.7375 -52.5 127.4375 C-63.4871906 118.73930744 -69.91624059 108.07985622 -75.5 95.4375 C-75.80728027 94.75719727 -76.11456055 94.07689453 -76.43115234 93.37597656 C-78.26871058 88.99290564 -78.94402836 86.13681642 -77.5 81.4375 C-76.40607841 78.95106087 -75.29234179 76.62601301 -74 74.25 C-73.64687744 73.59580078 -73.29375488 72.94160156 -72.92993164 72.26757812 C-67.41221483 62.36689968 -59.2491156 51.57583204 -49.5 45.4375 C-48.84 45.4375 -48.18 45.4375 -47.5 45.4375 C-47.54640625 44.84582031 -47.5928125 44.25414062 -47.640625 43.64453125 C-47.94476475 36.98604319 -47.94476475 36.98604319 -45.625 34.125 C-43.20273008 31.06154098 -43.06148834 29.55781395 -42.5625 25.75 C-41.35854726 17.16391596 -37.82121922 9.4838836 -31.5 3.4375 C-21.6837951 -3.89508679 -11.20901715 -5.15309215 0 0 Z " fill="#050303" transform="translate(82.5,9.5625)"/>
<path d="M0 0 C2.64768575 1.32384288 4.74130013 3.09793695 7 5 C7.66 5.33 8.32 5.66 9 6 C9 6.66 9 7.32 9 8 C9.66 8 10.32 8 11 8 C16.51267764 14.74827781 27 28.03386633 27 37 C27.99 37 28.98 37 30 37 C30.495 36.01 30.495 36.01 31 35 C28.71772714 50.97591003 18.16387938 67.66951693 6 78 C5.67 78 5.34 78 5 78 C4.94392578 76.04320312 4.94392578 76.04320312 4.88671875 74.046875 C4.82097647 72.28122515 4.75453214 70.51560135 4.6875 68.75 C4.65366211 67.46996094 4.65366211 67.46996094 4.61914062 66.1640625 C4.33179803 59.16335212 2.894261 52.73417467 1 46 C-0.18758911 46.52956299 -0.18758911 46.52956299 -1.39916992 47.06982422 C-4.35277217 48.38633641 -7.30675221 49.70199625 -10.26098633 51.01708984 C-11.53652776 51.5851107 -12.81192057 52.15346541 -14.0871582 52.72216797 C-15.92619813 53.54223185 -17.76582761 54.36097321 -19.60546875 55.1796875 C-20.71043701 55.67194824 -21.81540527 56.16420898 -22.95385742 56.67138672 C-25.61822025 57.83348198 -28.29416289 58.93880107 -31 60 C-29.56682448 63.06454182 -28.12769376 66.12625093 -26.6875 69.1875 C-26.28337891 70.05181641 -25.87925781 70.91613281 -25.46289062 71.80664062 C-23.06341974 76.91651017 -23.06341974 76.91651017 -20.14453125 81.73828125 C-18.54456645 84.89998643 -19.19848956 86.56928088 -20 90 C-20.97981641 92.34205026 -22.04095507 94.65095357 -23.16015625 96.9296875 C-23.46948593 97.56488312 -23.77881561 98.20007874 -24.09751892 98.85452271 C-25.07862542 100.86497898 -26.07034579 102.86997655 -27.0625 104.875 C-27.73313238 106.24444395 -28.40306159 107.61423249 -29.07226562 108.984375 C-30.70672971 112.32694095 -32.35074925 115.66470045 -34 119 C-38.69983482 113.4973058 -41.32538494 107.35013617 -44.3125 100.8125 C-44.8804075 99.59939773 -45.44876285 98.38650501 -46.01757812 97.17382812 C-46.54416016 96.02978516 -47.07074219 94.88574219 -47.61328125 93.70703125 C-48.09579346 92.6600708 -48.57830566 91.61311035 -49.07543945 90.53442383 C-49.38054443 89.69806396 -49.68564941 88.8617041 -50 88 C-49.505 87.01 -49.505 87.01 -49 86 C-48.01 86 -47.02 86 -46 86 C-44.36915673 82.6277935 -42.74638276 79.2517641 -41.125 75.875 C-40.66480469 74.92367187 -40.20460938 73.97234375 -39.73046875 72.9921875 C-37.52695248 68.39354486 -35.43801413 63.90908274 -34 59 C-34.556875 58.525625 -35.11375 58.05125 -35.6875 57.5625 C-38.79302473 54.12124287 -41.1914127 50.27784576 -43 46 C-42.67 45.34 -42.34 44.68 -42 44 C-41.29875 44.66 -40.5975 45.32 -39.875 46 C-36.47539234 48.36494446 -35.05412149 48.67568691 -31 48 C-28.15079947 46.12230858 -28.15079947 46.12230858 -26 44 C-26.33 45.65 -26.66 47.3 -27 49 C-22.27251084 44.40382998 -18.16884368 40.32579407 -16 34 C-15.34 34 -14.68 34 -14 34 C-14 35.32 -14 36.64 -14 38 C-12.29575828 35.40643371 -10.61465286 32.79864964 -8.9375 30.1875 C-8.45216797 29.44951172 -7.96683594 28.71152344 -7.46679688 27.95117188 C-7.01240234 27.23896484 -6.55800781 26.52675781 -6.08984375 25.79296875 C-5.66566162 25.1383667 -5.24147949 24.48376465 -4.80444336 23.80932617 C-3.68151956 21.83148958 -3.68151956 21.83148958 -5 19 C-5.66 19 -6.32 19 -7 19 C-7.33 17.35 -7.66 15.7 -8 14 C-8.66 14.33 -9.32 14.66 -10 15 C-10.3690205 5.58997722 -10.3690205 5.58997722 -8 1 C-7.505 2.485 -7.505 2.485 -7 4 C-6.2575 3.319375 -5.515 2.63875 -4.75 1.9375 C-2 0 -2 0 0 0 Z " fill="#DAB93D" transform="translate(104,59)"/>
<path d="M0 0 C1.74837607 1.68637692 3.13632615 3.42803216 4.54296875 5.40625 C6.30504719 7.33367092 7.51504191 7.41264627 10 8 C12.28905989 11.67884625 13 13.61551956 13 18 C13.31453125 17.33613281 13.6290625 16.67226563 13.953125 15.98828125 C16.2759215 11.19576437 18.60301393 7.12491165 22 3 C22.37756808 1.67851173 22.71856793 0.34524529 23 -1 C24.62463842 -1.05395478 26.24978541 -1.09277195 27.875 -1.125 C29.23238281 -1.15980469 29.23238281 -1.15980469 30.6171875 -1.1953125 C33 -1 33 -1 35 1 C35.56520003 3.65537372 35.73788198 6.29144713 36 9 C36.66 9 37.32 9 38 9 C38.06058594 9.60328125 38.12117188 10.2065625 38.18359375 10.828125 C38.26738281 11.62734375 38.35117188 12.4265625 38.4375 13.25 C38.51871094 14.03890625 38.59992188 14.8278125 38.68359375 15.640625 C38.89752323 17.98208889 38.89752323 17.98208889 39.796875 19.9609375 C40 22 40 22 38.26953125 24.5859375 C37.45871094 25.50632812 36.64789063 26.42671875 35.8125 27.375 C29.85402609 33.44402968 29.85402609 33.44402968 27 41 C27.804375 40.01 28.60875 39.02 29.4375 38 C30.283125 37.01 31.12875 36.02 32 35 C32.33 35 32.66 35 33 35 C33.495 37.475 33.495 37.475 34 40 C34.66 39.67 35.32 39.34 36 39 C35.37240135 41.92879371 34.41377341 44.36095629 33 47 C32.34 47 31.68 47 31 47 C30.67322266 47.77150391 30.67322266 47.77150391 30.33984375 48.55859375 C28.44136411 52.01792253 26.01634673 54.98159465 23.5625 58.0625 C23.07201172 58.68705078 22.58152344 59.31160156 22.07617188 59.95507812 C15.84107315 67.83940675 15.84107315 67.83940675 12.5859375 68.4609375 C9.03050909 67.82719044 7.94921795 66.35197052 5.625 63.625 C4.84898438 62.71621094 4.07296875 61.80742188 3.2734375 60.87109375 C0.53604905 57.41408256 -1.97401336 53.8469579 -4.42578125 50.18359375 C-5.81656605 48.25444063 -7.16055166 46.8079407 -8.9375 45.25 C-11 43 -11 43 -11.3125 39.6875 C-11.209375 38.800625 -11.10625 37.91375 -11 37 C-7.12506344 35.92362873 -5.47547073 36.05433049 -2 38 C-2.68707031 37.18015625 -3.37414063 36.3603125 -4.08203125 35.515625 C-4.99224035 34.42712752 -5.90239365 33.33858339 -6.8125 32.25 C-7.26431641 31.71117187 -7.71613281 31.17234375 -8.18164062 30.6171875 C-9.46203705 29.08445017 -10.73129347 27.54242747 -12 26 C-12.62261719 25.27296875 -13.24523438 24.5459375 -13.88671875 23.796875 C-14.43779297 22.90742187 -14.43779297 22.90742187 -15 22 C-14.505 20.515 -14.505 20.515 -14 19 C-11.9375 18.3125 -11.9375 18.3125 -10 18 C-10.01160156 17.03578125 -10.02320313 16.0715625 -10.03515625 15.078125 C-10.04417969 13.81484375 -10.05320312 12.5515625 -10.0625 11.25 C-10.07410156 9.99703125 -10.08570313 8.7440625 -10.09765625 7.453125 C-9.95700774 2.47979364 -9.95700774 2.47979364 -9 0 C-5.69035313 -1.65482343 -3.5180408 -0.93814421 0 0 Z " fill="#D3464D" transform="translate(57,34)"/>
<path d="M0 0 C8.06422352 4.58974424 12.67677807 10.60952778 15.5 19.4375 C15.989838 23.27038058 15.97293243 27.01697775 15.875 30.875 C15.87371094 31.86693359 15.87242188 32.85886719 15.87109375 33.88085938 C15.7818323 41.1556677 15.7818323 41.1556677 13.5 43.4375 C12.5 42.4375 12.5 42.4375 12.40234375 40.37109375 C12.41394531 39.54738281 12.42554688 38.72367188 12.4375 37.875 C12.44652344 37.04871094 12.45554688 36.22242188 12.46484375 35.37109375 C12.47644531 34.73300781 12.48804688 34.09492187 12.5 33.4375 C11.84 33.4375 11.18 33.4375 10.5 33.4375 C9.51 30.4675 8.52 27.4975 7.5 24.4375 C5.581875 24.4684375 5.581875 24.4684375 3.625 24.5 C-0.25 24.5625 -0.25 24.5625 -2.5 23.4375 C-2.60570312 24.17097656 -2.71140625 24.90445313 -2.8203125 25.66015625 C-3.55250399 28.65204218 -4.59095322 30.38532277 -6.375 32.875 C-8.7618955 36.30616229 -10.75041176 39.64672548 -12.5 43.4375 C-12.83 43.4375 -13.16 43.4375 -13.5 43.4375 C-13.438125 42.550625 -13.37625 41.66375 -13.3125 40.75 C-13.52335523 37.02489096 -14.18350381 35.33312024 -16.5 32.4375 C-17.11875 32.293125 -17.7375 32.14875 -18.375 32 C-21.37356921 31.20626109 -22.24925053 29.16867478 -24.0703125 26.8046875 C-26.93263544 24.06749343 -30.75925228 24.4375 -34.5 24.4375 C-34.83 30.3775 -35.16 36.3175 -35.5 42.4375 C-37.975 42.9325 -37.975 42.9325 -40.5 43.4375 C-43.96364557 36.51020885 -42.53393478 23.24718499 -40.55859375 15.96875 C-39.38092158 13.57648804 -38.12017905 11.5495997 -36.5 9.4375 C-35.79875 8.365 -35.0975 7.2925 -34.375 6.1875 C-24.45454714 -3.30162882 -12.6640618 -5.82201602 0 0 Z " fill="#68A72D" transform="translate(82.5,9.5625)"/>
<path d="M0 0 C-0.15339844 0.72058594 -0.30679688 1.44117187 -0.46484375 2.18359375 C-1.98920254 10.20594911 -1.83677121 15.47943182 2.75 22.5 C4.76902027 25.34158409 6.41172387 27.58617817 9.265625 29.59375 C9.83796875 30.0578125 10.4103125 30.521875 11 31 C11 32.32 11 33.64 11 35 C11.66 35 12.32 35 13 35 C13 35.66 13 36.32 13 37 C13.56203125 37.22429687 14.1240625 37.44859375 14.703125 37.6796875 C17.67275417 39.38671923 19.50344167 41.54806544 21.75 44.125 C22.54921875 45.03507812 23.3484375 45.94515625 24.171875 46.8828125 C24.77515625 47.58148438 25.3784375 48.28015625 26 49 C19.22465389 51.2584487 10.64385283 45.63728446 4.4375 42.8125 C3.21063477 42.26045898 3.21063477 42.26045898 1.95898438 41.69726562 C-0.02909218 40.80204987 -2.01480308 39.9015835 -4 39 C-6.68359037 48.06344673 -7.6277754 56.60453769 -8 66 C-8.99 66 -9.98 66 -11 66 C-12.91076491 63.68456673 -14.58579585 61.42271911 -16.25 58.9375 C-16.73581543 58.22029785 -17.22163086 57.5030957 -17.72216797 56.76416016 C-23.12738051 48.58557372 -29.23747493 38.9536754 -30 29 C-28.52166753 23.15386705 -25.44513791 19.00062412 -21 15 C-20.42507812 14.2265625 -19.85015625 13.453125 -19.2578125 12.65625 C-16.64618015 9.58374135 -13.70541289 7.45788533 -10.375 5.25 C-9.78976563 4.85167969 -9.20453125 4.45335938 -8.6015625 4.04296875 C-2.62619174 0 -2.62619174 0 0 0 Z " fill="#E2C03F" transform="translate(38,66)"/>
<path d="M0 0 C0.66 0 1.32 0 2 0 C1.34 2.97 0.68 5.94 0 9 C-0.66 9 -1.32 9 -2 9 C-2.66 10.65 -3.32 12.3 -4 14 C-4.66 14 -5.32 14 -6 14 C-6.268125 14.5775 -6.53625 15.155 -6.8125 15.75 C-8.01719859 18.0325868 -9.40798115 19.9737942 -11 22 C-10.01 22.33 -9.02 22.66 -8 23 C-12.75 26 -12.75 26 -15 26 C-13.56682448 29.06454182 -12.12769376 32.12625093 -10.6875 35.1875 C-10.28337891 36.05181641 -9.87925781 36.91613281 -9.46289062 37.80664062 C-7.06341974 42.91651017 -7.06341974 42.91651017 -4.14453125 47.73828125 C-2.54456645 50.89998643 -3.19848956 52.56928088 -4 56 C-4.97981641 58.34205026 -6.04095507 60.65095357 -7.16015625 62.9296875 C-7.46948593 63.56488312 -7.77881561 64.20007874 -8.09751892 64.85452271 C-9.07862542 66.86497898 -10.07034579 68.86997655 -11.0625 70.875 C-11.73313238 72.24444395 -12.40306159 73.61423249 -13.07226562 74.984375 C-14.70672971 78.32694095 -16.35074925 81.66470045 -18 85 C-22.69983482 79.4973058 -25.32538494 73.35013617 -28.3125 66.8125 C-28.8804075 65.59939773 -29.44876285 64.38650501 -30.01757812 63.17382812 C-30.54416016 62.02978516 -31.07074219 60.88574219 -31.61328125 59.70703125 C-32.09579346 58.6600708 -32.57830566 57.61311035 -33.07543945 56.53442383 C-33.38054443 55.69806396 -33.68564941 54.8617041 -34 54 C-33.67 53.34 -33.34 52.68 -33 52 C-32.01 52 -31.02 52 -30 52 C-28.36915673 48.6277935 -26.74638276 45.2517641 -25.125 41.875 C-24.66480469 40.92367187 -24.20460938 39.97234375 -23.73046875 38.9921875 C-21.52695248 34.39354486 -19.43801413 29.90908274 -18 25 C-18.556875 24.525625 -19.11375 24.05125 -19.6875 23.5625 C-22.79302473 20.12124287 -25.1914127 16.27784576 -27 12 C-26.67 11.34 -26.34 10.68 -26 10 C-24.948125 10.99 -24.948125 10.99 -23.875 12 C-20.47539234 14.36494446 -19.05412149 14.67568691 -15 14 C-12.15079947 12.12230858 -12.15079947 12.12230858 -10 10 C-10.33 11.65 -10.66 13.3 -11 15 C-6.27251084 10.40382998 -2.16884368 6.32579407 0 0 Z " fill="#161711" transform="translate(88,93)"/>
<path d="M0 0 C2.58926331 2.58926331 2.37398043 4.02705279 2.625 7.625 C2.69976562 8.62789062 2.77453125 9.63078125 2.8515625 10.6640625 C2.92503906 11.82035156 2.92503906 11.82035156 3 13 C3.99 13 4.98 13 6 13 C6.33 17.29 6.66 21.58 7 26 C2.77486726 26 0.03372038 25.94756858 -3.875 25 C-4.65617187 24.814375 -5.43734375 24.62875 -6.2421875 24.4375 C-7.11230469 24.2209375 -7.11230469 24.2209375 -8 24 C-7.01 24.66 -6.02 25.32 -5 26 C-5 26.66 -5 27.32 -5 28 C-1.37 28.66 2.26 29.32 6 30 C6.33 31.32 6.66 32.64 7 34 C9.49034386 35.29660434 9.49034386 35.29660434 12 36 C11.42415568 38.38564077 10.77772405 40.66682784 10 43 C10.6492959 44.34187818 11.31731862 45.67479497 12 47 C12 48.32 12 49.64 12 51 C9.03 51.495 9.03 51.495 6 52 C10.29 52 14.58 52 19 52 C19 52.66 19 53.32 19 54 C13.06 54.495 13.06 54.495 7 55 C8.485 55.495 8.485 55.495 10 56 C12.25702393 58.25702393 14.21043519 60.34650735 16 63 C15.75 65.8125 15.75 65.8125 15 68 C12.7734375 68.2734375 12.7734375 68.2734375 10 68 C7.7890625 66.1640625 7.7890625 66.1640625 5.625 63.625 C4.84898438 62.71621094 4.07296875 61.80742188 3.2734375 60.87109375 C0.53604905 57.41408256 -1.97401336 53.8469579 -4.42578125 50.18359375 C-5.81656605 48.25444063 -7.16055166 46.8079407 -8.9375 45.25 C-11 43 -11 43 -11.3125 39.6875 C-11.209375 38.800625 -11.10625 37.91375 -11 37 C-7.12506344 35.92362873 -5.47547073 36.05433049 -2 38 C-2.68707031 37.18015625 -3.37414063 36.3603125 -4.08203125 35.515625 C-4.99224035 34.42712752 -5.90239365 33.33858339 -6.8125 32.25 C-7.26431641 31.71117187 -7.71613281 31.17234375 -8.18164062 30.6171875 C-9.46203705 29.08445017 -10.73129347 27.54242747 -12 26 C-12.62261719 25.27296875 -13.24523438 24.5459375 -13.88671875 23.796875 C-14.43779297 22.90742187 -14.43779297 22.90742187 -15 22 C-14.505 20.515 -14.505 20.515 -14 19 C-11.9375 18.3125 -11.9375 18.3125 -10 18 C-10.01160156 17.03578125 -10.02320313 16.0715625 -10.03515625 15.078125 C-10.04417969 13.81484375 -10.05320312 12.5515625 -10.0625 11.25 C-10.07410156 9.99703125 -10.08570313 8.7440625 -10.09765625 7.453125 C-9.95700774 2.47979364 -9.95700774 2.47979364 -9 0 C-5.88135455 -1.55932272 -3.33704665 -0.65549131 0 0 Z " fill="#D7494F" transform="translate(57,34)"/>
<path d="M0 0 C6.95660771 0.57021375 13.31427305 2.01302694 20 4 C20.33 3.34 20.66 2.68 21 2 C21.99 2 22.98 2 24 2 C24.33 2.66 24.66 3.32 25 4 C26.10859375 3.69964844 27.2171875 3.39929687 28.359375 3.08984375 C29.82278543 2.70522947 31.2863345 2.32114243 32.75 1.9375 C33.84441406 1.63875977 33.84441406 1.63875977 34.9609375 1.33398438 C38.71031044 0.36255593 41.30274238 -0.15449387 45 1 C43.56839732 2.00842453 42.12948547 3.00647891 40.6875 4 C39.48673828 4.8353125 39.48673828 4.8353125 38.26171875 5.6875 C36 7 36 7 33 7 C33.495 11.455 33.495 11.455 34 16 C34.33 16 34.66 16 35 16 C35.495 18.475 35.495 18.475 36 21 C36.598125 19.88625 37.19625 18.7725 37.8125 17.625 C39.37695617 14.71187472 40.09907498 13.93395001 43 12 C43.495 14.475 43.495 14.475 44 17 C44.66 16.67 45.32 16.34 46 16 C45.37240135 18.92879371 44.41377341 21.36095629 43 24 C42.34 24 41.68 24 41 24 C40.72148193 24.5887793 40.44296387 25.17755859 40.15600586 25.78417969 C38.35224998 29.24160066 35.95384114 32.1820995 33.5625 35.25 C33.07201172 35.8996875 32.58152344 36.549375 32.07617188 37.21875 C30.78978386 38.87143743 29.40079519 40.44309837 28 42 C27.01 42 26.02 42 25 42 C24.731875 41.401875 24.46375 40.80375 24.1875 40.1875 C23.1106021 37.95672092 23.1106021 37.95672092 21.375 36.375 C20.92125 35.92125 20.4675 35.4675 20 35 C20 34.34 20 33.68 20 33 C18.68 32.67 17.36 32.34 16 32 C16 31.67 16 31.34 16 31 C20.29 31 24.58 31 29 31 C29 30.34 29 29.68 29 29 C24.05 29.33 19.1 29.66 14 30 C14.33 29.34 14.66 28.68 15 28 C17.31 28 19.62 28 22 28 C21.65775391 27.20335937 21.65775391 27.20335937 21.30859375 26.390625 C21.02113281 25.68421875 20.73367187 24.9778125 20.4375 24.25 C20.14746094 23.55390625 19.85742188 22.8578125 19.55859375 22.140625 C18.90419592 19.63286269 19.10318785 18.41110151 20 16 C20.66 15.01 21.32 14.02 22 13 C20.02 12.34 18.04 11.68 16 11 C16 9.68 16 8.36 16 7 C14.9275 7.04125 13.855 7.0825 12.75 7.125 C8.44096439 6.98136548 6.49156317 6.37682755 3.375 3.5 C2.92125 3.005 2.4675 2.51 2 2 C1.34 1.34 0.68 0.68 0 0 Z " fill="#CB4248" transform="translate(47,57)"/>
<path d="M0 0 C3.22522324 2.15014883 3.73062163 3.06154377 5.1875 6.5 C5.53167969 7.2940625 5.87585938 8.088125 6.23046875 8.90625 C7 11 7 11 7 13 C7.99 13 8.98 13 10 13 C10.33 12.34 10.66 11.68 11 11 C8.71772714 26.97591003 -1.83612062 43.66951693 -14 54 C-14.33 54 -14.66 54 -15 54 C-15.01981934 53.44650879 -15.03963867 52.89301758 -15.06005859 52.32275391 C-15.54147006 38.04213829 -15.54147006 38.04213829 -18 24 C-17.67 24.66 -17.34 25.32 -17 26 C-15.02 25.67 -13.04 25.34 -11 25 C-10.87625 24.360625 -10.7525 23.72125 -10.625 23.0625 C-10.41875 22.381875 -10.2125 21.70125 -10 21 C-9.34 20.67 -8.68 20.34 -8 20 C-7.71125 19.278125 -7.4225 18.55625 -7.125 17.8125 C-5.80563053 14.51407634 -4.11804962 11.84612918 -2 9 C-1.34 9 -0.68 9 0 9 C0.93380961 4.46859347 0.93380961 4.46859347 0 0 Z " fill="#E4C13D" transform="translate(124,83)"/>
<path d="M0 0 C6.49538629 1.00455886 11.56714219 4.15994777 15.84375 9.15234375 C21.23382008 16.88075306 22.33066505 24.06963009 22.25 33.3125 C22.25773437 34.21806641 22.26546875 35.12363281 22.2734375 36.05664062 C22.27085938 36.92095703 22.26828125 37.78527344 22.265625 38.67578125 C22.26336914 39.45864502 22.26111328 40.24150879 22.25878906 41.0480957 C22 43 22 43 20 45 C19 44 19 44 18.90234375 41.93359375 C18.91394531 41.10988281 18.92554687 40.28617188 18.9375 39.4375 C18.94652344 38.61121094 18.95554687 37.78492188 18.96484375 36.93359375 C18.97644531 36.29550781 18.98804687 35.65742187 19 35 C18.34 35 17.68 35 17 35 C16.01 32.03 15.02 29.06 14 26 C12.081875 26.0309375 12.081875 26.0309375 10.125 26.0625 C6.25 26.125 6.25 26.125 4 25 C3.89429687 25.73347656 3.78859375 26.46695313 3.6796875 27.22265625 C2.94749601 30.21454218 1.90904678 31.94782277 0.125 34.4375 C-2.2618955 37.86866229 -4.25041176 41.20922548 -6 45 C-6.33 45 -6.66 45 -7 45 C-6.49540386 40.71093278 -5.94350927 36.88701855 -4 33 C-3.01 32.505 -3.01 32.505 -2 32 C-2.66 31.01 -3.32 30.02 -4 29 C-3.979375 28.175 -3.95875 27.35 -3.9375 26.5 C-3.7440636 23.9291052 -3.7440636 23.9291052 -5.5 22.1875 C-5.995 21.795625 -6.49 21.40375 -7 21 C-6.34 20.67 -5.68 20.34 -5 20 C-4.40929986 18.05396726 -4.40929986 18.05396726 -4 16 C-3.67 15.34 -3.34 14.68 -3 14 C-2.77141886 11.9625237 -2.58975722 9.91959697 -2.4375 7.875 C-2.35371094 6.77929688 -2.26992187 5.68359375 -2.18359375 4.5546875 C-2.12300781 3.71164062 -2.06242187 2.86859375 -2 2 C-0.02 2.66 1.96 3.32 4 4 C4 3.34 4 2.68 4 2 C2.68 1.67 1.36 1.34 0 1 C0 0.67 0 0.34 0 0 Z " fill="#5D932B" transform="translate(76,8)"/>
<path d="M0 0 C2.1450623 1.14403323 3.99759869 2.45784893 5.875 4 C6.205 3.01 6.535 2.02 6.875 1 C9.2742233 5.64849515 9.07457409 9.91086074 8.875 15 C8.215 14.67 7.555 14.34 6.875 14 C6.545 15.65 6.215 17.3 5.875 19 C4.885 19.33 3.895 19.66 2.875 20 C4.59744475 24.68000843 7.05197557 28.60899931 9.73046875 32.79296875 C10.10816406 33.52128906 10.48585937 34.24960938 10.875 35 C10.38 35.99 10.38 35.99 9.875 37 C8.10830159 34.77831625 6.35879219 32.54652523 4.6328125 30.29296875 C3.42541762 28.7179892 2.19197504 27.16274359 0.9375 25.625 C-1.15496584 20.45537852 -0.97594861 14.37352715 0.89453125 9.15625 C1.21808594 8.4446875 1.54164062 7.733125 1.875 7 C-7.42152417 12.21989302 -14.72648685 16.55216233 -20.828125 25.42578125 C-21.47007813 26.20501953 -21.47007813 26.20501953 -22.125 27 C-22.785 27 -23.445 27 -24.125 27 C-26.83724872 33.35404748 -27.67375386 37.93031022 -25.1875 44.5 C-24.21066903 46.68685765 -23.18984136 48.85461938 -22.125 51 C-21.65191406 51.97453125 -21.17882813 52.9490625 -20.69140625 53.953125 C-17.81546125 59.53354945 -14.46843178 64.40710438 -10.4453125 69.22265625 C-9.125 71 -9.125 71 -9.125 73 C-8.135 73 -7.145 73 -6.125 73 C-6.125 74.65 -6.125 76.3 -6.125 78 C-17.1121906 69.30180744 -23.54124059 58.64235622 -29.125 46 C-29.43228027 45.31969727 -29.73956055 44.63939453 -30.05615234 43.93847656 C-31.89381759 39.55515038 -32.58539427 36.69544486 -31.125 32 C-29.99184055 29.37606534 -28.68704143 26.87960907 -27.3125 24.375 C-26.96896484 23.72015625 -26.62542969 23.0653125 -26.27148438 22.390625 C-24.28444176 18.70732649 -22.29862536 15.80990649 -19.125 13 C-18.135 14.485 -18.135 14.485 -17.125 16 C-16.54492188 15.26394531 -15.96484375 14.52789062 -15.3671875 13.76953125 C-4.34428666 0 -4.34428666 0 0 0 Z " fill="#998125" transform="translate(36.125,59)"/>
<path d="M0 0 C2.99806837 3.66219744 5.09773388 7.68576774 7.25 11.875 C7.62640625 12.56980469 8.0028125 13.26460937 8.390625 13.98046875 C10.66393818 18.41844412 11.57566643 21.05956382 10 26 C8.7949166 29.15675531 7.45679564 32.23517847 6.0625 35.3125 C5.70220703 36.13556641 5.34191406 36.95863281 4.97070312 37.80664062 C2.25541025 43.87229488 2.25541025 43.87229488 0 45 C-1.70974135 41.44776091 -3.38875039 37.88182146 -5.0625 34.3125 C-5.79049805 32.80139648 -5.79049805 32.80139648 -6.53320312 31.25976562 C-7.21479492 29.79506836 -7.21479492 29.79506836 -7.91015625 28.30078125 C-8.33433838 27.40528564 -8.75852051 26.50979004 -9.19555664 25.5871582 C-10.56358422 21.18746524 -9.09990795 17.84532457 -7.1875 13.828125 C-6.83429687 13.08175781 -6.48109375 12.33539063 -6.1171875 11.56640625 C-5.56417969 10.41978516 -5.56417969 10.41978516 -5 9.25 C-4.63132812 8.47011719 -4.26265625 7.69023437 -3.8828125 6.88671875 C-1.14835963 1.14835963 -1.14835963 1.14835963 0 0 Z " fill="#FAF76E" transform="translate(69,123)"/>
<path d="M0 0 C4.23097842 1.41032614 5.05608319 4.11747851 7.20703125 7.87109375 C8.89008753 10.25845447 8.89008753 10.25845447 11.96484375 10.91796875 C15.9994565 12.3563056 16.76405873 14.14908267 18.75 17.875 C19.32234375 18.92429687 19.8946875 19.97359375 20.484375 21.0546875 C21.67197918 23.36255748 22.85278652 25.67183147 24 28 C23.071875 27.835 22.14375 27.67 21.1875 27.5 C17.42514755 26.90982707 14.63509126 26.9972162 11 28 C10.67 29.65 10.34 31.3 10 33 C6.00599406 29.28875554 3.15576766 25.4479466 0.3125 20.8125 C-2.50515368 16.15136348 -2.50515368 16.15136348 -6 12 C-6.99 13.485 -6.99 13.485 -8 15 C-8.66 14.67 -9.32 14.34 -10 14 C-7.96690406 9.39878288 -5.63485166 6.44844901 -2 3 C-1.34 2.01 -0.68 1.02 0 0 Z " fill="#E5C13D" transform="translate(19,78)"/>
<path d="M0 0 C0.66 0 1.32 0 2 0 C3.578125 1.79296875 3.578125 1.79296875 5.25 4.1875 C5.81203125 4.96480469 6.3740625 5.74210937 6.953125 6.54296875 C8 9 8 9 7.2578125 11.7109375 C6.01666624 13.96966952 4.84091048 15.22989377 3 17 C-0.36487513 21.61696183 -0.36487513 21.61696183 -2 27 C-2.66 27 -3.32 27 -4 27 C-4.33 27.99 -4.66 28.98 -5 30 C-6.98 30.33 -8.96 30.66 -11 31 C-11 30.34 -11 29.68 -11 29 C-11.66 29 -12.32 29 -13 29 C-13 28.34 -13 27.68 -13 27 C-15.97 27.33 -18.94 27.66 -22 28 C-14.03370787 12.06741573 -14.03370787 12.06741573 -6 9 C-4.19718762 6.71754029 -2.72422864 4.37559276 -1.26171875 1.86328125 C-0.63716797 0.94095703 -0.63716797 0.94095703 0 0 Z " fill="#E6C33F" transform="translate(118,78)"/>
<path d="M0 0 C0.66 0.33 1.32 0.66 2 1 C1.0409375 1.556875 1.0409375 1.556875 0.0625 2.125 C-2.63858072 4.58052793 -2.68407005 6.44578805 -3 10 C-2.01 10.33 -1.02 10.66 0 11 C0 13.31 0 15.62 0 18 C-1.98 18 -3.96 18 -6 18 C-5.32453125 18.31453125 -4.6490625 18.6290625 -3.953125 18.953125 C5.24224381 23.36477593 5.24224381 23.36477593 8 27 C8 27.66 8 28.32 8 29 C8.66 29 9.32 29 10 29 C10.12375 28.21625 10.2475 27.4325 10.375 26.625 C11 24 11 24 13 22 C14.39195915 26.17587745 12.82323219 28.13474776 11 32 C8.8125 31.875 8.8125 31.875 6 31 C5.21625 30.01 4.4325 29.02 3.625 28 C1.23049081 24.67802714 1.23049081 24.67802714 -2.6875 24.125 C-4.45756363 24.05820515 -6.22867654 24 -8 24 C-8.33 29.94 -8.66 35.88 -9 42 C-11.475 42.495 -11.475 42.495 -14 43 C-17.46364557 36.07270885 -16.03393478 22.80968499 -14.05859375 15.53125 C-12.87878182 13.13464143 -11.63377613 11.10824262 -10 9 C-9.58105469 8.40316406 -9.16210938 7.80632813 -8.73046875 7.19140625 C-6.29060839 3.96149587 -3.67787719 1.68983547 0 0 Z " fill="#5B932A" transform="translate(56,10)"/>
<path d="M0 0 C2.58926331 2.58926331 2.37398043 4.02705279 2.625 7.625 C2.69976562 8.62789062 2.77453125 9.63078125 2.8515625 10.6640625 C2.92503906 11.82035156 2.92503906 11.82035156 3 13 C3.99 13 4.98 13 6 13 C6.33 17.29 6.66 21.58 7 26 C0.25 26 0.25 26 -3.0859375 24.90625 C-3.78847656 24.68066406 -4.49101563 24.45507812 -5.21484375 24.22265625 C-5.92769531 23.98417969 -6.64054687 23.74570312 -7.375 23.5 C-8.47908203 23.14228516 -8.47908203 23.14228516 -9.60546875 22.77734375 C-11.40619578 22.19269212 -13.2034691 21.5974212 -15 21 C-13.625 19.5 -13.625 19.5 -12 18 C-11.34 18 -10.68 18 -10 18 C-10.01160156 17.03578125 -10.02320313 16.0715625 -10.03515625 15.078125 C-10.04417969 13.81484375 -10.05320312 12.5515625 -10.0625 11.25 C-10.07410156 9.99703125 -10.08570313 8.7440625 -10.09765625 7.453125 C-9.95700774 2.47979364 -9.95700774 2.47979364 -9 0 C-5.88135455 -1.55932272 -3.33704665 -0.65549131 0 0 Z " fill="#DA4E54" transform="translate(57,34)"/>
<path d="M0 0 C0.33 0 0.66 0 1 0 C1.09796875 0.66386719 1.1959375 1.32773437 1.296875 2.01171875 C2.18006629 7.72154261 2.18006629 7.72154261 5.125 12.5625 C7.90486436 16.17632367 7.34541803 19.59592014 7 24 C7.58265625 24.26683594 8.1653125 24.53367187 8.765625 24.80859375 C21.70729423 31.70930898 32.43348524 47.25432932 37 61 C37 62.32 37 63.64 37 65 C36.01 65 35.02 65 34 65 C33.61328125 64.21496094 33.2265625 63.42992187 32.828125 62.62109375 C28.78592585 54.46665734 24.84588269 46.84790666 19.171875 39.69921875 C18 38 18 38 18 36 C17.34 36 16.68 36 16 36 C16 35.34 16 34.68 16 34 C15.236875 33.731875 14.47375 33.46375 13.6875 33.1875 C11 32 11 32 9.4375 30.3125 C8.963125 29.879375 8.48875 29.44625 8 29 C5.02667109 29.28774151 2.61190363 30.60076591 0 32 C-0.33 31.34 -0.66 30.68 -1 30 C-1.66 31.32 -2.32 32.64 -3 34 C-3.16488152 29.71308042 -3.24795152 26.70250838 -1 23 C-0.03911617 20.11734851 0.11670941 18.32337729 0.09765625 15.33203125 C0.09443359 14.43935547 0.09121094 13.54667969 0.08789062 12.62695312 C0.07951172 11.69818359 0.07113281 10.76941406 0.0625 9.8125 C0.05798828 8.87212891 0.05347656 7.93175781 0.04882812 6.96289062 C0.03704626 4.64186288 0.02059558 2.32096356 0 0 Z " fill="#89373C" transform="translate(97,31)"/>
<path d="M0 0 C2.64768575 1.32384288 4.74130013 3.09793695 7 5 C7.66 5.33 8.32 5.66 9 6 C9 6.66 9 7.32 9 8 C9.66 8 10.32 8 11 8 C15.00613024 12.78090071 18.5476835 17.86799698 20 24 C19.29746094 23.27039063 18.59492187 22.54078125 17.87109375 21.7890625 C15.12513901 19.0460074 12.17108796 16.7034404 9.0625 14.375 C8.06347656 13.61960937 7.06445312 12.86421875 6.03515625 12.0859375 C3.11604072 10.07974999 0.20397996 8.49932892 -3 7 C-2.67 7.969375 -2.34 8.93875 -2 9.9375 C-0.32035598 16.26458009 0.41938831 20.49250919 -2.94140625 26.4296875 C-8.92140152 35.46070076 -8.92140152 35.46070076 -12 37 C-10.28721755 32.33788973 -7.83752035 28.45453955 -5.14453125 24.3046875 C-3.62995735 21.93482127 -3.62995735 21.93482127 -5 19 C-5.66 19 -6.32 19 -7 19 C-7.33 17.35 -7.66 15.7 -8 14 C-8.99 14.495 -8.99 14.495 -10 15 C-10.3690205 5.58997722 -10.3690205 5.58997722 -8 1 C-7.67 1.99 -7.34 2.98 -7 4 C-6.2575 3.319375 -5.515 2.63875 -4.75 1.9375 C-2 0 -2 0 0 0 Z " fill="#8F7E25" transform="translate(104,59)"/>
<path d="M0 0 C0.33 0 0.66 0 1 0 C0.98952637 0.57443848 0.97905273 1.14887695 0.96826172 1.74072266 C0.92642901 4.36876977 0.900588 6.99674654 0.875 9.625 C0.85824219 10.52863281 0.84148438 11.43226562 0.82421875 12.36328125 C0.78810637 17.31067682 0.98203959 21.38111283 3 26 C3.33 26.33 3.66 26.66 4 27 C4.04092937 29.33297433 4.04241723 31.66705225 4 34 C3.34 32.68 2.68 31.36 2 30 C1.67 30.66 1.34 31.32 1 32 C0.4225 31.690625 -0.155 31.38125 -0.75 31.0625 C-1.86375 30.5365625 -1.86375 30.5365625 -3 30 C-3.928125 29.5359375 -3.928125 29.5359375 -4.875 29.0625 C-7.76827195 28.97740377 -9.11694004 30.23517597 -11.20703125 32.12109375 C-15.07844863 36.17806926 -18.5314783 40.59883135 -22 45 C-22.66 44.67 -23.32 44.34 -24 44 C-22.86782434 35.71648695 -15.69110287 30.52379978 -9.69921875 25.25 C-8 24 -8 24 -6 24 C-6.04640625 23.40832031 -6.0928125 22.81664063 -6.140625 22.20703125 C-6.40324087 16.45761951 -5.71629677 14.48141669 -2 10 C-1.07153434 6.70445704 -0.49950512 3.38480442 0 0 Z " fill="#2C3A15" transform="translate(41,31)"/>
<path d="M0 0 C3.70462081 1.2348736 4.11477142 2.76133476 5.8828125 6.078125 C7.59601822 9.02531806 9.75420867 11.44229321 12 14 C12.66 13.67 13.32 13.34 14 13 C14.83878455 14.28813342 15.67086783 15.58063256 16.5 16.875 C17.19609375 17.95394531 17.19609375 17.95394531 17.90625 19.0546875 C19 21 19 21 19 23 C19.99 23.33 20.98 23.66 22 24 C19.9770602 30.64766356 17.34927071 36.81944187 14.3125 43.0625 C13.89677734 43.92810547 13.48105469 44.79371094 13.05273438 45.68554688 C12.03989913 47.79270985 11.0222841 49.8974094 10 52 C8.35 52 6.7 52 5 52 C6.73539821 46.07570956 9.44551609 40.6641012 12.125 35.125 C12.82689453 33.66320312 12.82689453 33.66320312 13.54296875 32.171875 C14.69214845 29.77970501 15.84457243 27.38915684 17 25 C16.04867187 24.70351562 15.09734375 24.40703125 14.1171875 24.1015625 C11.17444255 23.06164511 9.92962807 22.35843431 8 20 C9.98 20.33 11.96 20.66 14 21 C13.55269531 20.55269531 13.10539062 20.10539062 12.64453125 19.64453125 C11.39192641 18.39192641 10.14068649 17.13795554 8.890625 15.8828125 C7.74495705 14.74187872 6.59092485 13.60915097 5.421875 12.4921875 C4.246063 11.36367829 3.11802565 10.18578478 2 9 C2 8.34 2 7.68 2 7 C1.34 7 0.68 7 0 7 C0.33 6.01 0.66 5.02 1 4 C0.61067144 1.85744207 0.61067144 1.85744207 0 0 Z " fill="#11100D" transform="translate(49,94)"/>
<path d="M0 0 C3.96 0 7.92 0 12 0 C12.33 0.66 12.66 1.32 13 2 C13.99 2.33 14.98 2.66 16 3 C16 3.66 16 4.32 16 5 C13.83125748 4.49396008 12.00032373 4.00016187 10 3 C10 7.62 10 12.24 10 17 C9.34 17.33 8.68 17.66 8 18 C7.34 17.67 6.68 17.34 6 17 C5.67 17.99 5.34 18.98 5 20 C4.34 20 3.68 20 3 20 C2.67 19.01 2.34 18.02 2 17 C1.48824219 16.53980469 0.97648437 16.07960938 0.44921875 15.60546875 C-1.49827646 13.44800101 -1.31164852 12.16791604 -1.1875 9.3125 C-1.16042969 8.50425781 -1.13335937 7.69601563 -1.10546875 6.86328125 C-1.07066406 6.24839844 -1.03585938 5.63351563 -1 5 C1.64738916 3.5393715 2.89448334 3 6 3 C6 2.34 6 1.68 6 1 C4.02 1 2.04 1 0 1 C0 0.67 0 0.34 0 0 Z " fill="#639E2D" transform="translate(64,7)"/>
<path d="M0 0 C0 1.65 0 3.3 0 5 C-0.99 5 -1.98 5 -3 5 C-3 5.66 -3 6.32 -3 7 C-1.35 7 0.3 7 2 7 C2 7.33 2 7.66 2 8 C-0.31 8.66 -2.62 9.32 -5 10 C-3.906875 10.103125 -2.81375 10.20625 -1.6875 10.3125 C3.05988024 11.19760479 3.05988024 11.19760479 5 14 C6.1577506 17.47325181 6.06866652 20.36067448 6 24 C5.34 24 4.68 24 4 24 C3.01 21.03 2.02 18.06 1 15 C-0.918125 15.0309375 -0.918125 15.0309375 -2.875 15.0625 C-6.75 15.125 -6.75 15.125 -9 14 C-9.10570313 14.73347656 -9.21140625 15.46695313 -9.3203125 16.22265625 C-10.05250399 19.21454218 -11.09095322 20.94782277 -12.875 23.4375 C-15.2618955 26.86866229 -17.25041176 30.20922548 -19 34 C-19.33 34 -19.66 34 -20 34 C-18.8 23.8 -18.8 23.8 -15 20 C-14.02435738 18.24384328 -13.04935753 16.48731371 -12.08203125 14.7265625 C-11 13 -11 13 -8.8125 11 C-6.28011396 8.20564299 -6.28278754 5.67623807 -6 2 C-1.125 0 -1.125 0 0 0 Z " fill="#5D852C" transform="translate(89,19)"/>
<path d="M0 0 C2.47972103 2.47972103 3.07234637 4.63614433 4.25 7.9375 C7.80938681 17.37716033 12.20411568 25.47159301 18.6796875 33.22265625 C20 35 20 35 20 37 C20.99 37 21.98 37 23 37 C23 38.65 23 40.3 23 42 C10.35981082 31.99318357 0.31558204 17.20907429 -2 1 C-1.34 0.67 -0.68 0.34 0 0 Z " fill="#0B0A09" transform="translate(7,95)"/>
<path d="M0 0 C3.68867338 3.38959176 5.96627751 6.42412439 8 11 C8.33 11.66 8.66 12.32 9 13 C9.23799705 16.3279587 9.18518365 19.66446087 9.1875 23 C9.19974609 23.928125 9.21199219 24.85625 9.22460938 25.8125 C9.22750977 27.1428125 9.22750977 27.1428125 9.23046875 28.5 C9.23457764 29.3146875 9.23868652 30.129375 9.24291992 30.96875 C9 33 9 33 7 35 C4.81684264 32.81684264 5.64812095 27.16823205 5.5703125 24.078125 C5.37351139 19.61729993 4.92597641 16.45676578 2 13 C-0.02126924 12.19363191 -0.02126924 12.19363191 -2.1875 12.1875 C-3.445625 12.125625 -4.70375 12.06375 -6 12 C-5.67 9.69 -5.34 7.38 -5 5 C-4.01 6.485 -4.01 6.485 -3 8 C-3 7.34 -3 6.68 -3 6 C-2.01 6 -1.02 6 0 6 C0 4.02 0 2.04 0 0 Z " fill="#69A532" transform="translate(89,18)"/>
<path d="M0 0 C2 2 2 2 2.125 5.125 C2.08375 6.07375 2.0425 7.0225 2 8 C-4.33150039 12.01806756 -4.33150039 12.01806756 -7.3125 11.9375 C-9 11 -9 11 -11 8 C-11.4375 4.5 -11.4375 4.5 -11 1 C-7.17996152 -2.7076844 -4.61745133 -2.15481062 0 0 Z " fill="#FEFE89" transform="translate(74,140)"/>
<path d="M0 0 C2.33056641 0.19262695 2.33056641 0.19262695 5 1 C6.50146484 3.12963867 6.50146484 3.12963867 7.7109375 5.91796875 C8.15050781 6.92537109 8.59007812 7.93277344 9.04296875 8.97070312 C9.48253906 10.03224609 9.92210938 11.09378906 10.375 12.1875 C10.83777344 13.22970703 11.30054687 14.27191406 11.77734375 15.34570312 C14.1075297 20.81642327 15.38891231 24.05744729 14 30 C13.34 30 12.68 30 12 30 C10.12020647 26.05368602 8.25076233 22.10269039 6.39086914 18.14697266 C5.75634392 16.80122671 5.11898071 15.45681516 4.47875977 14.11376953 C3.56041849 12.18603532 2.65230085 10.25377464 1.74609375 8.3203125 C1.19622803 7.15773926 0.6463623 5.99516602 0.07983398 4.79736328 C-0.27651123 3.8742334 -0.63285645 2.95110352 -1 2 C-0.67 1.34 -0.34 0.68 0 0 Z " fill="#A24241" transform="translate(55,145)"/>
<path d="M0 0 C1.65 0 3.3 0 5 0 C2.11175757 7.56015271 -1.22101177 14.84472507 -4.75 22.125 C-5.25660156 23.176875 -5.76320313 24.22875 -6.28515625 25.3125 C-7.52050578 27.87643298 -8.75882801 30.43888195 -10 33 C-12 30 -12 30 -11.4453125 26.53125 C-9.85177379 20.94491203 -7.33341101 15.74736468 -4.875 10.5 C-4.40707031 9.48679688 -3.93914062 8.47359375 -3.45703125 7.4296875 C-2.31084679 4.95018643 -1.15840199 2.47381053 0 0 Z " fill="#0D0A09" transform="translate(80,145)"/>
<path d="M0 0 C5.18328344 0.4248593 7.84955932 2.61128474 11.6875 5.9375 C12.8125 7.3125 12.8125 7.3125 12.8125 9.3125 C13.4725 9.3125 14.1325 9.3125 14.8125 9.3125 C14.93625 8.52875 15.06 7.745 15.1875 6.9375 C15.8125 4.3125 15.8125 4.3125 17.8125 2.3125 C19.20445915 6.48837745 17.63573219 8.44724776 15.8125 12.3125 C13.625 12.1875 13.625 12.1875 10.8125 11.3125 C10.02875 10.3225 9.245 9.3325 8.4375 8.3125 C6.04299081 4.99052714 6.04299081 4.99052714 2.125 4.4375 C0.35493637 4.37070515 -1.41617654 4.3125 -3.1875 4.3125 C-3.5175 10.2525 -3.8475 16.1925 -4.1875 22.3125 C-4.8475 22.3125 -5.5075 22.3125 -6.1875 22.3125 C-7.97779873 16.16195759 -8.11121318 9.64186368 -5.75 3.6875 C-3.55319222 0.34835218 -3.55319222 0.34835218 0 0 Z " fill="#AD3A43" transform="translate(51.1875,29.6875)"/>
<path d="M0 0 C0.33 0 0.66 0 1 0 C1.09796875 0.66386719 1.1959375 1.32773437 1.296875 2.01171875 C2.17540885 7.74394697 2.17540885 7.74394697 5.1875 12.5625 C7.26847802 15.36105665 7.23027804 16.02494358 6.9375 19.375 C6.23082653 23.64359331 5.06164159 27.19389246 3 31 C2.01 31.33 1.02 31.66 0 32 C-0.33 31.34 -0.66 30.68 -1 30 C-1.66 31.32 -2.32 32.64 -3 34 C-3.16488152 29.71308042 -3.24795152 26.70250838 -1 23 C-0.03911617 20.11734851 0.11670941 18.32337729 0.09765625 15.33203125 C0.09443359 14.43935547 0.09121094 13.54667969 0.08789062 12.62695312 C0.07951172 11.69818359 0.07113281 10.76941406 0.0625 9.8125 C0.05798828 8.87212891 0.05347656 7.93175781 0.04882812 6.96289062 C0.03704626 4.64186288 0.02059558 2.32096356 0 0 Z " fill="#1B2514" transform="translate(97,31)"/>
<path d="M0 0 C3 1 3 1 4.11914062 2.77832031 C4.46138672 3.53725586 4.80363281 4.29619141 5.15625 5.078125 C5.53910156 5.90957031 5.92195313 6.74101563 6.31640625 7.59765625 C6.90228516 8.91056641 6.90228516 8.91056641 7.5 10.25 C8.27890109 11.96461065 9.06009053 13.67818393 9.84375 15.390625 C10.21113281 16.19564453 10.57851562 17.00066406 10.95703125 17.83007812 C12.15312487 20.31858003 13.57239915 22.63896782 15 25 C15 25.66 15 26.32 15 27 C13.35 27 11.7 27 10 27 C8.30993612 23.82438794 6.65238588 20.63285701 5 17.4375 C4.52304688 16.54224609 4.04609375 15.64699219 3.5546875 14.72460938 C0.89029398 9.52904201 -0.6426169 5.85584651 0 0 Z " fill="#99373A" transform="translate(70,118)"/>
<path d="M0 0 C0.33 0 0.66 0 1 0 C1.94537713 3.42957982 2.45524843 6.45220186 2 10 C0.09357154 12.15908765 -1.95449107 13.48941254 -4.36328125 15.0625 C-9.10537568 18.54706124 -12.44739589 23.35557903 -16 28 C-16.66 27.67 -17.32 27.34 -18 27 C-16.86782434 18.71648695 -9.69110287 13.52379978 -3.69921875 8.25 C-2 7 -2 7 0 7 C0 4.69 0 2.38 0 0 Z " fill="#080806" transform="translate(35,48)"/>
<path d="M0 0 C0.33 0.99 0.66 1.98 1 3 C0.67 3.66 0.34 4.32 0 5 C0.66 5 1.32 5 2 5 C-1.26803597 15.79872754 -8.31364624 23.96505876 -16 32 C-16.33 31.01 -16.66 30.02 -17 29 C-15.3890601 26.43809558 -13.73536892 24.04986041 -11.9375 21.625 C-6.97313653 14.70953176 -3.21085767 7.91198683 0 0 Z " fill="#17100E" transform="translate(128,103)"/>
<path d="M0 0 C1.1171875 1.671875 1.1171875 1.671875 2 4 C1.3203125 6.578125 1.3203125 6.578125 0.125 9.25 C-0.26429687 10.14203125 -0.65359375 11.0340625 -1.0546875 11.953125 C-1.36664063 12.62859375 -1.67859375 13.3040625 -2 14 C-2.66 14 -3.32 14 -4 14 C-4.15855469 14.62648438 -4.31710938 15.25296875 -4.48046875 15.8984375 C-6.40994854 22.65694683 -6.40994854 22.65694683 -9.6875 24.5625 C-10.450625 24.706875 -11.21375 24.85125 -12 25 C-11.46037322 19.71819849 -9.65643216 15.92976324 -7.125 11.375 C-6.59712891 10.39273438 -6.59712891 10.39273438 -6.05859375 9.390625 C-4.24796107 6.06552261 -2.38621714 2.95650803 0 0 Z " fill="#AD493C" transform="translate(16,72)"/>
<path d="M0 0 C0 0.99 0 1.98 0 3 C2.97 3.495 2.97 3.495 6 4 C6 5.32 6 6.64 6 8 C5.01 8.66 4.02 9.32 3 10 C3 9.34 3 8.68 3 8 C1.7625 8.33 0.525 8.66 -0.75 9 C-3.74591845 9.79891159 -5.80107719 10 -9 10 C-9.3125 7.25 -9.3125 7.25 -9 4 C-5.82190563 0.64534483 -4.70465908 0 0 0 Z " fill="#D3454B" transform="translate(90,49)"/>
<path d="M0 0 C-0.56002831 5.56472574 -2.6345243 9.9267939 -5.0625 14.875 C-5.62807617 16.050625 -5.62807617 16.050625 -6.20507812 17.25 C-7.12993234 19.16995053 -8.06403978 21.085439 -9 23 C-10.65 23 -12.3 23 -14 23 C-12.47342723 17.9511786 -10.35878819 13.38371054 -8 8.6875 C-7.64421875 7.95982422 -7.2884375 7.23214844 -6.921875 6.48242188 C-3.68368476 0 -3.68368476 0 0 0 Z " fill="#090805" transform="translate(68,123)"/>
<path d="M0 0 C1.299375 0.99 1.299375 0.99 2.625 2 C6.29741751 4.17624741 7.83310042 4.7092595 12 4 C14.84920053 2.12230858 14.84920053 2.12230858 17 0 C15.60240043 5.08218027 13.44978893 9.96671562 10 14 C9.01 14 8.02 14 7 14 C5.17578125 11.4453125 5.17578125 11.4453125 3.3125 8.125 C2.68988281 7.03445312 2.06726562 5.94390625 1.42578125 4.8203125 C0 2 0 2 0 0 Z " fill="#6FA83D" transform="translate(61,103)"/>
<path d="M0 0 C3.22522324 2.15014883 3.73062163 3.06154377 5.1875 6.5 C5.53167969 7.2940625 5.87585938 8.088125 6.23046875 8.90625 C7 11 7 11 7 13 C7.99 13 8.98 13 10 13 C10.33 12.34 10.66 11.68 11 11 C10.00956295 15.83628305 9.04301154 20.47618873 7 25 C6.01 25 5.02 25 4 25 C1.9050815 18.71524449 1.9050815 18.71524449 3.125 15.0625 C3.75269799 12.98170973 3.75269799 12.98170973 4 11 C2.73647948 8.67488528 2.73647948 8.67488528 1 7 C1 6.01 1 5.02 1 4 C0.6937566 2.66018514 0.36548445 1.32488113 0 0 Z " fill="#CFB036" transform="translate(124,83)"/>
<path d="M0 0 C0.33 0 0.66 0 1 0 C1.03738281 0.75925781 1.07476562 1.51851562 1.11328125 2.30078125 C1.17902344 3.29464844 1.24476562 4.28851563 1.3125 5.3125 C1.39951172 6.79169922 1.39951172 6.79169922 1.48828125 8.30078125 C2.05516304 11.29097452 2.66247646 12.14751259 5 14 C6.6875 15.5 6.6875 15.5 8 17 C8 17.99 8 18.98 8 20 C3.13103697 19.40380045 -1.32790951 18.43023178 -6 17 C-4.68 16.34 -3.36 15.68 -2 15 C-2.02320313 14.41992188 -2.04640625 13.83984375 -2.0703125 13.2421875 C-2.18250423 8.38588834 -1.87514915 4.57067605 0 0 Z " fill="#DA474E" transform="translate(49,37)"/>
<path d="M0 0 C0.99 0 1.98 0 3 0 C2.814375 0.78375 2.62875 1.5675 2.4375 2.375 C1.74037734 4.97089775 1.74037734 4.97089775 3 7 C3.66 6.67 4.32 6.34 5 6 C4.95875 7.0725 4.9175 8.145 4.875 9.25 C4.9885825 12.65747485 5.21273364 14.20739631 7 17 C6.01 17 5.02 17 4 17 C3.34 18.98 2.68 20.96 2 23 C0.4375 21.375 0.4375 21.375 -1 19 C-0.73500958 15.75386738 -0.02879865 13.08639595 1 10 C0.67 9.030625 0.34 8.06125 0 7.0625 C-0.99521949 4.01464031 -1.11976852 2.91139816 0 0 Z " fill="#587529" transform="translate(68,24)"/>
<path d="M0 0 C1.95534628 1.95534628 2.68924471 3.22956905 3.8046875 5.703125 C4.14113281 6.43660156 4.47757813 7.17007813 4.82421875 7.92578125 C5.51754855 9.4593546 6.21027003 10.99320314 6.90234375 12.52734375 C8.50056189 16.00939316 10.08006636 19.2426783 12.3203125 22.359375 C12.87460937 23.23078125 13.42890625 24.1021875 14 25 C13.67 25.99 13.34 26.98 13 28 C9.24931159 24.67820197 7.15618134 21.06337826 4.875 16.6875 C4.52824219 16.04876953 4.18148438 15.41003906 3.82421875 14.75195312 C1.61853182 10.58143013 0.02068799 6.61603276 -1 2 C-0.67 1.34 -0.34 0.68 0 0 Z " fill="#D2B237" transform="translate(10,97)"/>
<path d="M0 0 C0.66 0.99 1.32 1.98 2 3 C1.67 3.66 1.34 4.32 1 5 C0.91550372 6.7404417 0.89276976 8.48409722 0.90234375 10.2265625 C0.90556641 11.2578125 0.90878906 12.2890625 0.91210938 13.3515625 C0.92048828 14.43179688 0.92886719 15.51203125 0.9375 16.625 C0.94201172 17.71296875 0.94652344 18.8009375 0.95117188 19.921875 C0.96298224 22.61463789 0.97945222 25.30729188 1 28 C0.01 28 -0.98 28 -2 28 C-3.25248502 25.49502996 -3.11374406 23.79146726 -3.09765625 20.9921875 C-3.09443359 20.00605469 -3.09121094 19.01992188 -3.08789062 18.00390625 C-3.07951172 16.97136719 -3.07113281 15.93882813 -3.0625 14.875 C-3.05798828 13.83472656 -3.05347656 12.79445313 -3.04882812 11.72265625 C-3.03701952 9.14838038 -3.02055075 6.57421854 -3 4 C-2.34 3.67 -1.68 3.34 -1 3 C-0.67 2.01 -0.34 1.02 0 0 Z " fill="#72AA3E" transform="translate(44,25)"/>
<path d="M0 0 C0.66 0.33 1.32 0.66 2 1 C1.34 1.4125 0.68 1.825 0 2.25 C-0.66 2.8275 -1.32 3.405 -2 4 C-2 5.32 -2 6.64 -2 8 C-2.66 8 -3.32 8 -4 8 C-4 8.66 -4 9.32 -4 10 C-4.66 10 -5.32 10 -6 10 C-6.226875 10.53625 -6.45375 11.0725 -6.6875 11.625 C-8.43382056 14.78500863 -10.6402849 17.2676983 -13 20 C-14 17 -14 17 -13.3984375 15.16796875 C-10.13586813 8.85452345 -6.72328493 3.08907686 0 0 Z " fill="#638147" transform="translate(56,10)"/>
<path d="M0 0 C0.33 0 0.66 0 1 0 C1.33 1.65 1.66 3.3 2 5 C2.66 4.67 3.32 4.34 4 4 C3.37240135 6.92879371 2.41377341 9.36095629 1 12 C0.34 12 -0.32 12 -1 12 C-1 12.66 -1 13.32 -1 14 C-2.65 13.67 -4.3 13.34 -6 13 C-5.63195535 6.86592242 -4.15701288 4.26093821 0 0 Z " fill="#D34A51" transform="translate(89,69)"/>
<path d="M0 0 C-5.31093092 4.2186118 -9.14380834 6.74492074 -16.0546875 6.11328125 C-18.21805293 5.86665979 -18.21805293 5.86665979 -21 7 C-21 5.02 -21 3.04 -21 1 C-20.67 1.66 -20.34 2.32 -20 3 C-18.89140625 2.69964844 -17.7828125 2.39929687 -16.640625 2.08984375 C-15.17721457 1.70522947 -13.7136655 1.32114243 -12.25 0.9375 C-11.15558594 0.63875977 -11.15558594 0.63875977 -10.0390625 0.33398438 C-6.28968956 -0.63744407 -3.69725762 -1.15449387 0 0 Z " fill="#110507" transform="translate(92,58)"/>
<path d="M0 0 C6.95660771 0.57021375 13.31427305 2.01302694 20 4 C20.33 3.34 20.66 2.68 21 2 C21 3.98 21 5.96 21 8 C5.86834094 6.20471842 5.86834094 6.20471842 2 2 C1.34 1.34 0.68 0.68 0 0 Z " fill="#120607" transform="translate(47,57)"/>
<path d="M0 0 C0.99 0.33 1.98 0.66 3 1 C3.33 5.29 3.66 9.58 4 14 C1.6870518 11.6870518 1.50419025 10.52095125 0.875 7.375 C0.70742188 6.55773437 0.53984375 5.74046875 0.3671875 4.8984375 C0.24601562 4.27195312 0.12484375 3.64546875 0 3 C-0.99 3.33 -1.98 3.66 -3 4 C-3.33 5.65 -3.66 7.3 -4 9 C-6 7.375 -6 7.375 -8 5 C-8.25 1.75 -8.25 1.75 -8 -1 C-4.32740566 -2.22419811 -3.42541582 -1.54143712 0 0 Z " fill="#933035" transform="translate(54,72)"/>
<path d="M0 0 C0.33 0 0.66 0 1 0 C1 2.31 1 4.62 1 7 C1.57234375 7.25652344 2.1446875 7.51304688 2.734375 7.77734375 C5.22648783 9.12222533 7.13355081 10.68513118 9.25 12.5625 C9.95640625 13.18253906 10.6628125 13.80257812 11.390625 14.44140625 C11.92171875 14.95574219 12.4528125 15.47007813 13 16 C13 16.33 13 16.66 13 17 C7.69317426 16.59178264 5.59218115 15.83991778 2 12 C0.68 12 -0.64 12 -2 12 C-1.34 8.04 -0.68 4.08 0 0 Z " fill="#090A07" transform="translate(103,48)"/>
<path d="M0 0 C5.27214518 0.25717781 7.87129938 2.17233517 11.6796875 5.52734375 C13 7 13 7 13 9 C13.66 9 14.32 9 15 9 C15.12375 8.21625 15.2475 7.4325 15.375 6.625 C16 4 16 4 18 2 C19.39195915 6.17587745 17.82323219 8.13474776 16 12 C13.8125 11.875 13.8125 11.875 11 11 C9.74908504 9.52456184 8.50129191 8.04390903 7.3359375 6.5 C5.28954334 4.20229428 2.79770847 3.17113378 0 2 C0 1.34 0 0.68 0 0 Z " fill="#070505" transform="translate(51,30)"/>
<path d="M0 0 C2.82078915 2.45681635 4.1559019 5.04774685 5.6875 8.4375 C6.12449219 9.38496094 6.56148437 10.33242187 7.01171875 11.30859375 C8 14 8 14 8 18 C7.01 18 6.02 18 5 18 C4.01836578 16.06374902 3.03977546 14.12595461 2.0625 12.1875 C1.51722656 11.10855469 0.97195312 10.02960938 0.41015625 8.91796875 C-1 6 -1 6 -2 3 C-1.34 2.67 -0.68 2.34 0 2 C0 1.34 0 0.68 0 0 Z " fill="#130E0C" transform="translate(126,78)"/>
<path d="M0 0 C0.7425 0.61875 1.485 1.2375 2.25 1.875 C4.78147377 4.01436507 4.78147377 4.01436507 7.1875 4.9375 C9 6 9 6 10.375 8.375 C11 11 11 11 10.125 13.3125 C9.568125 14.1478125 9.568125 14.1478125 9 15 C8.01 13.02 7.02 11.04 6 9 C4.35 9.33 2.7 9.66 1 10 C-0.60725635 6.78548731 -0.05748185 3.56387464 0 0 Z " fill="#D2444A" transform="translate(59,37)"/>
<path d="M0 0 C0.33 0.66 0.66 1.32 1 2 C1.99 1.67 2.98 1.34 4 1 C4.78410467 6.37671776 5.27898163 11.77016445 5.6875 17.1875 C5.74800537 17.87650391 5.80851074 18.56550781 5.87084961 19.27539062 C6.15800126 23.38807915 5.87062192 26.3089261 4 30 C3.67 30 3.34 30 3 30 C2.98018066 29.44650879 2.96036133 28.89301758 2.93994141 28.32275391 C2.45852994 14.04213829 2.45852994 14.04213829 0 0 Z " fill="#958572" transform="translate(106,107)"/>
<path d="M0 0 C0 0.66 0 1.32 0 2 C-0.66386719 2.17015625 -1.32773438 2.3403125 -2.01171875 2.515625 C-7.23422661 3.94895562 -10.91395691 5.29702345 -15 9 C-15.66 9 -16.32 9 -17 9 C-16.7416116 5.51175659 -15.73533264 4.75785753 -13.0625 2.3125 C-7.99898549 -1.51097014 -6.10830182 -0.88668897 0 0 Z " fill="#759C54" transform="translate(70,8)"/>
<path d="M0 0 C2.61593153 1.83115207 2.96989455 2.90968366 4 6 C4.03954234 8.33299825 4.04401732 10.66708189 4 13 C3.34 13 2.68 13 2 13 C1.01 10.03 0.02 7.06 -1 4 C-3.64 4 -6.28 4 -9 4 C-9 3.01 -9 2.02 -9 1 C-5.95016004 -0.52491998 -3.3576631 -0.23562548 0 0 Z " fill="#040402" transform="translate(91,30)"/>
<path d="M0 0 C0.33 0 0.66 0 1 0 C1.33 3.63 1.66 7.26 2 11 C2.33 8.36 2.66 5.72 3 3 C3.33 4.32 3.66 5.64 4 7 C4.66 7 5.32 7 6 7 C6.33 10.3 6.66 13.6 7 17 C5.02 16.67 3.04 16.34 1 16 C1 15.01 1 14.02 1 13 C0.34 12.67 -0.32 12.34 -1 12 C-0.67 8.04 -0.34 4.08 0 0 Z " fill="#843B33" transform="translate(89,36)"/>
<path d="M0 0 C1.32 0 2.64 0 4 0 C4 4.95 4 9.9 4 15 C-0.51711712 10.48288288 -0.51711712 10.48288288 -0.8125 6.375 C-0.88082031 5.59898438 -0.94914062 4.82296875 -1.01953125 4.0234375 C-1 2 -1 2 0 0 Z " fill="#65933C" transform="translate(36,44)"/>
<path d="M0 0 C1.2065625 0.0309375 1.2065625 0.0309375 2.4375 0.0625 C3.5625 5.8125 3.5625 5.8125 2.4375 8.0625 C0.0625 8.1875 0.0625 8.1875 -2.5625 8.0625 C-3.2225 7.4025 -3.8825 6.7425 -4.5625 6.0625 C-3.83457637 0.09352625 -3.83457637 0.09352625 0 0 Z " fill="#FFFEE7" transform="translate(69.5625,140.9375)"/>
<path d="M0 0 C0.66 0.33 1.32 0.66 2 1 C0.92562408 3.08839363 -0.15895527 5.17033514 -1.25 7.25 C-2.15492187 8.99023438 -2.15492187 8.99023438 -3.078125 10.765625 C-4.81798414 13.69368062 -6.47717254 15.74508342 -9 18 C-10 15 -10 15 -8.41796875 11.6796875 C-7.68501844 10.40533832 -6.94104365 9.13728125 -6.1875 7.875 C-5.63352539 6.90626953 -5.63352539 6.90626953 -5.06835938 5.91796875 C-2.27817358 1.13908679 -2.27817358 1.13908679 0 0 Z " fill="#CDAD34" transform="translate(125,107)"/>
<path d="M0 0 C4.29 0 8.58 0 13 0 C11.68 1.65 10.36 3.3 9 5 C9.99 6.98 10.98 8.96 12 11 C11.01 11 10.02 11 9 11 C8.5978125 10.1028125 8.5978125 10.1028125 8.1875 9.1875 C7.1106021 6.95672092 7.1106021 6.95672092 5.375 5.375 C4.92125 4.92125 4.4675 4.4675 4 4 C4 3.34 4 2.68 4 2 C2.68 1.67 1.36 1.34 0 1 C0 0.67 0 0.34 0 0 Z " fill="#872C30" transform="translate(63,88)"/>
<path d="M0 0 C2.475 0.99 2.475 0.99 5 2 C4.93940934 3.41782145 4.85045877 4.83444466 4.75 6.25 C4.70359375 7.03890625 4.6571875 7.8278125 4.609375 8.640625 C4 11 4 11 0 15 C0 10.05 0 5.1 0 0 Z " fill="#6A9C3B" transform="translate(99,44)"/>
<path d="M0 0 C0.66 0.33 1.32 0.66 2 1 C0.06706695 5.01455327 -2.24485076 8.76155525 -4.5625 12.5625 C-5.80766217 14.67386195 -6.93721027 16.79266748 -8 19 C-8.33 19 -8.66 19 -9 19 C-7.8 8.8 -7.8 8.8 -4 5 C-2.65705519 3.34106818 -1.32255312 1.67523395 0 0 Z " fill="#15090A" transform="translate(78,34)"/>
<path d="M0 0 C0.33 0.99 0.66 1.98 1 3 C1.66 3 2.32 3 3 3 C2.21362959 6.10712212 1.36075884 9.09244107 0 12 C-2.6875 13.5625 -2.6875 13.5625 -5 14 C-4.46515599 8.65155992 -2.53309233 4.64203897 0 0 Z " fill="#8F3C3D" transform="translate(9,83)"/>
<path d="M0 0 C2.475 0.495 2.475 0.495 5 1 C5 1.66 5 2.32 5 3 C7.475 3.99 7.475 3.99 10 5 C10 5.66 10 6.32 10 7 C11.32 7.33 12.64 7.66 14 8 C11.35261084 9.4606285 10.10551666 10 7 10 C5.17578125 8.06640625 5.17578125 8.06640625 3.3125 5.5625 C2.68988281 4.73878906 2.06726562 3.91507813 1.42578125 3.06640625 C0 1 0 1 0 0 Z " fill="#C03F44" transform="translate(42,55)"/>
<path d="M0 0 C0.33 0.66 0.66 1.32 1 2 C1.763125 2 2.52625 2 3.3125 2 C5.20833333 2 7.10416667 2 9 2 C9.66 3.32 10.32 4.64 11 6 C12.32 6 13.64 6 15 6 C15 6.66 15 7.32 15 8 C16.98 8.66 18.96 9.32 21 10 C20.67 10.66 20.34 11.32 20 12 C18.99839844 11.52949219 17.99679688 11.05898437 16.96484375 10.57421875 C15.62242382 9.94525277 14.27997432 9.31634989 12.9375 8.6875 C12.28072266 8.37876953 11.62394531 8.07003906 10.94726562 7.75195312 C6.66535239 5.7481021 2.35472575 3.84042376 -2 2 C-1.34 1.34 -0.68 0.68 0 0 Z " fill="#8E8251" transform="translate(36,103)"/>
<path d="M0 0 C1.9375 0.8125 1.9375 0.8125 4 2 C5.00496852 5.01490557 5.10335303 7.04181692 5.0625 10.1875 C5.05347656 11.08855469 5.04445313 11.98960938 5.03515625 12.91796875 C5.02355469 13.60503906 5.01195312 14.29210937 5 15 C4.67 15 4.34 15 4 15 C3.7525 14.113125 3.505 13.22625 3.25 12.3125 C1.96065232 8.89572865 0.40019871 6.7202252 -2 4 C-1.34 2.68 -0.68 1.36 0 0 Z " fill="#DE5258" transform="translate(53,63)"/>
<path d="M0 0 C0.763125 0.309375 1.52625 0.61875 2.3125 0.9375 C4.18789677 1.67893593 6.08684652 2.36228217 8 3 C8.33 2.34 8.66 1.68 9 1 C9.66 1 10.32 1 11 1 C10.51421457 4.12290635 10.0013988 6.99580359 9 10 C8.34 10 7.68 10 7 10 C5.31267723 8.01739574 3.64633943 6.0167658 2 4 C1.34 3.67 0.68 3.34 0 3 C0 2.01 0 1.02 0 0 Z " fill="#5B932B" transform="translate(57,29)"/>
<path d="M0 0 C3.68854495 1.22951498 4.17827729 2.76872088 5.94921875 6.078125 C7.46120778 8.84354732 9.22330161 11.39840593 11 14 C10.01 14.33 9.02 14.66 8 15 C7.38125 14.195625 6.7625 13.39125 6.125 12.5625 C4.25835959 9.96125481 4.25835959 9.96125481 2 9 C2 8.34 2 7.68 2 7 C1.34 7 0.68 7 0 7 C0.33 6.01 0.66 5.02 1 4 C0.61067144 1.85744207 0.61067144 1.85744207 0 0 Z " fill="#506725" transform="translate(49,94)"/>
<path d="M0 0 C1.25955231 3.77865693 0.48087189 5.03411786 -0.9375 8.6875 C-1.31777344 9.68136719 -1.69804687 10.67523438 -2.08984375 11.69921875 C-2.39019531 12.45847656 -2.69054687 13.21773437 -3 14 C-3.99 14 -4.98 14 -6 14 C-5.34 10.37 -4.68 6.74 -4 3 C-2.68 2.67 -1.36 2.34 0 2 C0 1.34 0 0.68 0 0 Z " fill="#944345" transform="translate(134,94)"/>
<path d="M0 0 C4.0042343 3.49087093 5.62671065 5.64951939 6 11 C5.67 10.34 5.34 9.68 5 9 C3.10466658 8.53476937 3.10466658 8.53476937 0.9375 8.375 C-0.361875 8.25125 -1.66125 8.1275 -3 8 C-3 7.34 -3 6.68 -3 6 C-2.01 6 -1.02 6 0 6 C0 4.02 0 2.04 0 0 Z " fill="#81BC4A" transform="translate(89,18)"/>
<path d="M0 0 C0.33 1.32 0.66 2.64 1 4 C-0.32 4 -1.64 4 -3 4 C-2.01 4.66 -1.02 5.32 0 6 C-0.94875 6.226875 -1.8975 6.45375 -2.875 6.6875 C-6.19323388 7.69083714 -6.19323388 7.69083714 -7.375 10.625 C-7.58125 11.40875 -7.7875 12.1925 -8 13 C-8.33 13 -8.66 13 -9 13 C-9.48461538 6.7 -9.48461538 6.7 -7.3125 3.5625 C-4.61589191 1.74046751 -3.18873549 1.64569606 0 2 C0 1.34 0 0.68 0 0 Z " fill="#588929" transform="translate(53,24)"/>
<path d="M0 0 C0.66 0 1.32 0 2 0 C1.34 2.97 0.68 5.94 0 9 C-0.66 9 -1.32 9 -2 9 C-2.66 10.65 -3.32 12.3 -4 14 C-4.99 13.34 -5.98 12.68 -7 12 C-6.21625 10.948125 -5.4325 9.89625 -4.625 8.8125 C-2.59491421 5.98303198 -1.10887021 3.32661064 0 0 Z " fill="#4C6B26" transform="translate(88,93)"/>
<path d="M0 0 C2.31 0 4.62 0 7 0 C7.20086443 3.71599191 7.1519437 4.77208445 5 8 C4.01 8 3.02 8 2 8 C1.34 5.36 0.68 2.72 0 0 Z " fill="#619A2E" transform="translate(66,109)"/>
<path d="M0 0 C1.32 0.66 2.64 1.32 4 2 C3.67 3.65 3.34 5.3 3 7 C1.35 7 -0.3 7 -2 7 C-2.33 6.01 -2.66 5.02 -3 4 C-1.5625 1.8125 -1.5625 1.8125 0 0 Z " fill="#DF5056" transform="translate(69,95)"/>
<path d="M0 0 C0.33 0 0.66 0 1 0 C1.33 3.96 1.66 7.92 2 12 C1.34 12 0.68 12 0 12 C0 12.99 0 13.98 0 15 C-0.66 15 -1.32 15 -2 15 C-2.21755666 9.5610835 -2.10428384 5.12919186 0 0 Z " fill="#C44148" transform="translate(49,37)"/>
<path d="M0 0 C0.99 0 1.98 0 3 0 C3 3.96 3 7.92 3 12 C2.34 12 1.68 12 1 12 C-0.3271261 8.0186217 -0.06915913 4.14954773 0 0 Z " fill="#0E0706" transform="translate(44,40)"/>
<path d="M0 0 C2.6855594 2.6855594 3.06049974 5.37621328 4 9 C2.68 9.33 1.36 9.66 0 10 C-0.66 7.03 -1.32 4.06 -2 1 C-1.34 0.67 -0.68 0.34 0 0 Z " fill="#0B0A08" transform="translate(7,95)"/>
<path d="M0 0 C2.475 0.495 2.475 0.495 5 1 C5.33 1.99 5.66 2.98 6 4 C6.99 4 7.98 4 9 4 C9 5.65 9 7.3 9 9 C7.87105124 8.06725891 6.74699124 7.12859878 5.625 6.1875 C4.99851562 5.66542969 4.37203125 5.14335937 3.7265625 4.60546875 C2 3 2 3 0 0 Z " fill="#74363B" transform="translate(21,128)"/>
<path d="M0 0 C2.82119614 1.03443859 3.84496198 1.73220706 5.375 4.375 C6 7 6 7 4 11 C2.35 7.7 0.7 4.4 -1 1 C-0.67 0.67 -0.34 0.34 0 0 Z " fill="#97393C" transform="translate(64,41)"/>
<path d="M0 0 C2 2 2 2 2.1953125 3.9453125 C2.13020833 5.96354167 2.06510417 7.98177083 2 10 C1.01 10.495 1.01 10.495 0 11 C-1.77084117 8.29165469 -2.01052504 7.10735541 -1.6875 3.8125 C-1 1 -1 1 0 0 Z " fill="#EEEE75" transform="translate(69,36)"/>
<path d="M0 0 C0.33 0.99 0.66 1.98 1 3 C-0.3125 5.1875 -0.3125 5.1875 -2 7 C-2.66 7 -3.32 7 -4 7 C-4.4125 7.495 -4.825 7.99 -5.25 8.5 C-7.76822501 10.65847858 -9.79375585 10.21374961 -13 10 C-13 9.67 -13 9.34 -13 9 C-11.7315625 8.7215625 -11.7315625 8.7215625 -10.4375 8.4375 C-5.90490954 6.54205308 -3.25312328 3.59960978 0 0 Z " fill="#2B4518" transform="translate(80,98)"/>
<path d="M0 0 C0.33 0 0.66 0 1 0 C1.33 1.65 1.66 3.3 2 5 C2.66 4.67 3.32 4.34 4 4 C3.40072174 7.35595828 2.15377564 9.37801226 0 12 C0 9.36 0 6.72 0 4 C-0.99 4.33 -1.98 4.66 -3 5 C-1.125 1.125 -1.125 1.125 0 0 Z " fill="#923137" transform="translate(89,69)"/>
<path d="M0 0 C0.99 0 1.98 0 3 0 C3.38133299 1.9914056 3.71325582 3.99279077 4 6 C3.67 6.33 3.34 6.66 3 7 C2.63239269 9.32817964 2.29758419 11.6618385 2 14 C1.67 14 1.34 14 1 14 C0.855625 12.88625 0.71125 11.7725 0.5625 10.625 C0.21627965 7.17857953 0.21627965 7.17857953 -1 5 C-0.72057545 3.32345271 -0.39171753 1.65391846 0 0 Z " fill="#7A1E23" transform="translate(68,60)"/>
<path d="M0 0 C1.5625 1.25 1.5625 1.25 3 3 C2.875 5.125 2.875 5.125 2 7 C1.01 7.33 0.02 7.66 -1 8 C-1.33 7.34 -1.66 6.68 -2 6 C-2.66 7.32 -3.32 8.64 -4 10 C-4.41176754 6.39703406 -4.1535853 5.21597933 -2 2.1875 C-1.34 1.465625 -0.68 0.74375 0 0 Z " fill="#263D14" transform="translate(98,55)"/>
<path d="M0 0 C-2 1.5 -2 1.5 -4 3 C-4.70125 3.556875 -5.4025 4.11375 -6.125 4.6875 C-8 6 -8 6 -10 6 C-9.63088042 3.32388302 -9.15144437 2.1568531 -7.25 0.1875 C-4.3995411 -1.31690887 -3.01911587 -0.92250763 0 0 Z " fill="#A8D879" transform="translate(63,11)"/>
<path d="M0 0 C2 1 2 1 2.62109375 2.765625 C3.02399618 5.14150323 3.09791478 7.34179517 3.0625 9.75 C3.05347656 10.54921875 3.04445313 11.3484375 3.03515625 12.171875 C3.01775391 13.07679687 3.01775391 13.07679687 3 14 C2.34 13.67 1.68 13.34 1 13 C0.33203125 10.8203125 0.33203125 10.8203125 -0.1875 8.125 C-0.45626953 6.79855469 -0.45626953 6.79855469 -0.73046875 5.4453125 C-1 3 -1 3 0 0 Z " fill="#5B8930" transform="translate(42,60)"/>
<path d="M0 0 C0.33 0.66 0.66 1.32 1 2 C1.99 1.67 2.98 1.34 4 1 C4.33 3.64 4.66 6.28 5 9 C4.01 9.33 3.02 9.66 2 10 C1.34 6.7 0.68 3.4 0 0 Z " fill="#B7A973" transform="translate(106,107)"/>
<path d="M0 0 C1.125 1.6875 1.125 1.6875 2 4 C1.125 6.75 1.125 6.75 0 9 C-0.66 8.34 -1.32 7.68 -2 7 C-2.99 7.66 -3.98 8.32 -5 9 C-3.7508258 5.54074837 -2.32472205 2.85306797 0 0 Z " fill="#8C393A" transform="translate(16,72)"/>
<path d="M0 0 C2.35448165 2.55068845 2.98327924 3.71017358 3.1875 7.25 C3.125625 8.1575 3.06375 9.065 3 10 C2.34 10 1.68 10 1 10 C-0.83691257 6.21812119 -1.15837626 4.05431692 0 0 Z " fill="#BE484E" transform="translate(66,165)"/>
<path d="M0 0 C1 2 1 2 0.44140625 4.1640625 C0.15136719 4.97617188 -0.13867188 5.78828125 -0.4375 6.625 C-0.72496094 7.44226563 -1.01242188 8.25953125 -1.30859375 9.1015625 C-1.53675781 9.72804688 -1.76492187 10.35453125 -2 11 C-4.13181214 7.25712373 -3.95685425 5.21015871 -3 1 C-2.01 0.67 -1.02 0.34 0 0 Z " fill="#AA9E6C" transform="translate(33,105)"/>
<path d="M0 0 C0.33 0 0.66 0 1 0 C0.67 5.94 0.34 11.88 0 18 C-0.33 18 -0.66 18 -1 18 C-1 16.35 -1 14.7 -1 13 C-1.99 12.67 -2.98 12.34 -4 12 C-3.34 11.34 -2.68 10.68 -2 10 C-1.32059533 7.57284794 -1.32059533 7.57284794 -0.875 4.875 C-0.70742188 3.96492188 -0.53984375 3.05484375 -0.3671875 2.1171875 C-0.24601562 1.41851562 -0.12484375 0.71984375 0 0 Z " fill="#182210" transform="translate(41,31)"/>
<path d="M0 0 C0 1.65 0 3.3 0 5 C-0.99 5 -1.98 5 -3 5 C-3 5.66 -3 6.32 -3 7 C-1.35 7 0.3 7 2 7 C2 7.33 2 7.66 2 8 C0.02 8.33 -1.96 8.66 -4 9 C-4.33 7.02 -4.66 5.04 -5 3 C-1.125 0 -1.125 0 0 0 Z " fill="#599027" transform="translate(89,19)"/>
<path d="M0 0 C0.99 0.33 1.98 0.66 3 1 C3.33 3.31 3.66 5.62 4 8 C2.68 7.67 1.36 7.34 0 7 C0 4.69 0 2.38 0 0 Z " fill="#B03F41" transform="translate(70,118)"/>
<path d="M0 0 C0.66 0.33 1.32 0.66 2 1 C0.68 3.64 -0.64 6.28 -2 9 C-2.66 9 -3.32 9 -4 9 C-3.38461538 3.46153846 -3.38461538 3.46153846 -1.4375 1.125 C-0.963125 0.75375 -0.48875 0.3825 0 0 Z " fill="#D4B438" transform="translate(125,107)"/>
<path d="M0 0 C1.89213369 2.38573379 3.02391783 4.07175348 4 7 C1.69 7 -0.62 7 -3 7 C-2.01 4.69 -1.02 2.38 0 0 Z " fill="#E8EA5C" transform="translate(69,123)"/>
<path d="M0 0 C1.12894876 0.93274109 2.25300876 1.87140122 3.375 2.8125 C4.00148438 3.33457031 4.62796875 3.85664062 5.2734375 4.39453125 C7 6 7 6 9 9 C8.401875 8.67 7.80375 8.34 7.1875 8 C4.94613529 6.79212012 4.94613529 6.79212012 2 7 C0.5393715 4.35261084 0 3.10551666 0 0 Z " fill="#2A4217" transform="translate(58,98)"/>
<path d="M0 0 C0.99 1.32 1.98 2.64 3 4 C2.67 4.66 2.34 5.32 2 6 C2.27942455 7.67654729 2.60828247 9.34608154 3 11 C0.9375 9.4375 0.9375 9.4375 -1 7 C-0.75 3.25 -0.75 3.25 0 0 Z " fill="#1F3010" transform="translate(48,89)"/>
<path d="M0 0 C0.66 0.33 1.32 0.66 2 1 C2.25 3.75 2.25 3.75 2 7 C0 9.375 0 9.375 -2 11 C-1.85892253 9.54119891 -1.71197585 8.08296449 -1.5625 6.625 C-1.48128906 5.81289062 -1.40007812 5.00078125 -1.31640625 4.1640625 C-1 2 -1 2 0 0 Z " fill="#1E2D10" transform="translate(90,89)"/>
<path d="M0 0 C3.20148213 2.13432142 3.52206739 2.68419896 4.6875 6.125 C4.93886719 6.84945312 5.19023437 7.57390625 5.44921875 8.3203125 C5.72185547 9.15175781 5.72185547 9.15175781 6 10 C5.01 10.495 5.01 10.495 4 11 C1 7.375 1 7.375 1 4 C0.6937566 2.66018514 0.36548445 1.32488113 0 0 Z " fill="#C0A232" transform="translate(124,83)"/>
<path d="M0 0 C1.98 0.99 1.98 0.99 4 2 C4.99 1.34 5.98 0.68 7 0 C6.34 1.98 5.68 3.96 5 6 C4.01 6 3.02 6 2 6 C1.34 4.02 0.68 2.04 0 0 Z " fill="#17090A" transform="translate(66,75)"/>
<path d="M0 0 C1.32 0 2.64 0 4 0 C3.6875 2.375 3.6875 2.375 3 5 C2.01 5.66 1.02 6.32 0 7 C0 4.69 0 2.38 0 0 Z " fill="#64A22B" transform="translate(99,52)"/>
<path d="M0 0 C1.32 0 2.64 0 4 0 C4 2.31 4 4.62 4 7 C2 5.1875 2 5.1875 0 3 C0 2.01 0 1.02 0 0 Z " fill="#6CA934" transform="translate(36,52)"/>
<path d="M0 0 C2.01136276 2.55991624 3.62845496 5.04590299 5 8 C4.01 8 3.02 8 2 8 C1.67 8.66 1.34 9.32 1 10 C0.63720544 8.71073008 0.28503302 7.41846728 -0.0625 6.125 C-0.35833984 5.04605469 -0.35833984 5.04605469 -0.66015625 3.9453125 C-1 2 -1 2 0 0 Z " fill="#BE5E46" transform="translate(70,33)"/>
<path d="M0 0 C2.475 0.495 2.475 0.495 5 1 C4.67 2.65 4.34 4.3 4 6 C2.68 5.34 1.36 4.68 0 4 C0 2.68 0 1.36 0 0 Z " fill="#5F952F" transform="translate(91,27)"/>
<path d="M0 0 C0.66 0 1.32 0 2 0 C1.55090939 1.48199902 1.09043436 2.96055236 0.625 4.4375 C0.36976562 5.26121094 0.11453125 6.08492187 -0.1484375 6.93359375 C-1 9 -1 9 -3 10 C-2.49287967 6.28111761 -1.88391785 3.26545761 0 0 Z " fill="#EDED65" transform="translate(72,158)"/>
<path d="M0 0 C0.99 0.33 1.98 0.66 3 1 C3 1.66 3 2.32 3 3 C3.66 3 4.32 3 5 3 C5 3.66 5 4.32 5 5 C4.01 5 3.02 5 2 5 C1.67 5.66 1.34 6.32 1 7 C0.67 4.69 0.34 2.38 0 0 Z " fill="#B04144" transform="translate(61,157)"/>
<path d="M0 0 C-1.8125 2 -1.8125 2 -4 4 C-4.99 4 -5.98 4 -7 4 C-7.33 3.34 -7.66 2.68 -8 2 C-5.14066998 -0.85933002 -3.8625627 -1.2875209 0 0 Z " fill="#212A12" transform="translate(83,107)"/>
<path d="M0 0 C0.99 0.33 1.98 0.66 3 1 C2.34 2.98 1.68 4.96 1 7 C0.01 7 -0.98 7 -2 7 C-1.34 4.69 -0.68 2.38 0 0 Z " fill="#B84B50" transform="translate(130,101)"/>
<path d="M0 0 C0.99 0.33 1.98 0.66 3 1 C3.6875 3.0625 3.6875 3.0625 4 5 C2.35 5 0.7 5 -1 5 C-0.67 3.35 -0.34 1.7 0 0 Z " fill="#B0474B" transform="translate(81,140)"/>
<path d="M0 0 C0.66 0.33 1.32 0.66 2 1 C2.625 3.5625 2.625 3.5625 3 6 C1.35 5.67 -0.3 5.34 -2 5 C-2 4.01 -2 3.02 -2 2 C-1.34 2 -0.68 2 0 2 C0 1.34 0 0.68 0 0 Z " fill="#983A3A" transform="translate(124,75)"/>
<path d="M0 0 C0.99 0 1.98 0 3 0 C7 4.34285714 7 4.34285714 7 7 C5.0625 6.1875 5.0625 6.1875 3 5 C2.67 4.01 2.34 3.02 2 2 C1.34 2 0.68 2 0 2 C0 1.34 0 0.68 0 0 Z " fill="#D7454C" transform="translate(113,65)"/>
<path d="M0 0 C0.33 0 0.66 0 1 0 C1.3125 2.6875 1.3125 2.6875 1 6 C-1.5 8.875 -1.5 8.875 -4 11 C-2.7874262 7.27566618 -1.49140021 3.62197194 0 0 Z " fill="#292B11" transform="translate(98,49)"/>
<path d="M0 0 C-1.75 3.875 -1.75 3.875 -4 5 C-4 4.34 -4 3.68 -4 3 C-5.65 3 -7.3 3 -9 3 C-6.01800145 0.01800145 -4.21244839 0 0 0 Z " fill="#EC7479" transform="translate(97,54)"/>
<path d="M0 0 C1.9375 0.6875 1.9375 0.6875 2.9375 2.6875 C0.6275 3.0175 -1.6825 3.3475 -4.0625 3.6875 C-4.0625 2.6975 -4.0625 1.7075 -4.0625 0.6875 C-2.0625 -0.3125 -2.0625 -0.3125 0 0 Z " fill="#0D0608" transform="translate(86.0625,30.3125)"/>
<path d="M0 0 C1.2065625 0.0309375 1.2065625 0.0309375 2.4375 0.0625 C2.4375 1.0525 2.4375 2.0425 2.4375 3.0625 C1.4475 3.7225 0.4575 4.3825 -0.5625 5.0625 C-1.5525 3.7425 -2.5425 2.4225 -3.5625 1.0625 C-2.5625 0.0625 -2.5625 0.0625 0 0 Z " fill="#A5383E" transform="translate(69.5625,72.9375)"/>
<path d="M0 0 C2.625 1.25 2.625 1.25 5 3 C5 3.99 5 4.98 5 6 C2.11562221 4.70700306 0.12780579 3.34058637 -2 1 C-1.34 0.67 -0.68 0.34 0 0 Z " fill="#1B290F" transform="translate(37,57)"/>
<path d="M0 0 C0.66 0.33 1.32 0.66 2 1 C1.25 2.9375 1.25 2.9375 0 5 C-2.125 5.75 -2.125 5.75 -4 6 C-1.125 1.125 -1.125 1.125 0 0 Z " fill="#020103" transform="translate(78,34)"/>
<path d="M0 0 C1.32 0.66 2.64 1.32 4 2 C4 2.66 4 3.32 4 4 C1.69 4.33 -0.62 4.66 -3 5 C-2.01 3.35 -1.02 1.7 0 0 Z " fill="#69A92F" transform="translate(49,22)"/>
<path d="M0 0 C1.98 0.66 3.96 1.32 6 2 C5.34 3.65 4.68 5.3 4 7 C2.10786631 4.61426621 0.97608217 2.92824652 0 0 Z " fill="#F8F86C" transform="translate(65,159)"/>
<path d="M0 0 C2.3773161 2.3773161 2.67028521 3.70285207 3 7 C2.34 7.66 1.68 8.32 1 9 C-1.125 2.25 -1.125 2.25 0 0 Z " fill="#C2A433" transform="translate(10,97)"/>
<path d="M0 0 C2.475 0.495 2.475 0.495 5 1 C5 1.66 5 2.32 5 3 C5.66 3.33 6.32 3.66 7 4 C6.01 4.66 5.02 5.32 4 6 C2.68 4.02 1.36 2.04 0 0 Z " fill="#CB474D" transform="translate(42,55)"/>
<path d="M0 0 C0.66 0 1.32 0 2 0 C2 2.31 2 4.62 2 7 C1.01 7.33 0.02 7.66 -1 8 C-0.67 5.36 -0.34 2.72 0 0 Z " fill="#A8363F" transform="translate(92,44)"/>
<path d="M0 0 C0.33 0 0.66 0 1 0 C1.125 6.625 1.125 6.625 0 10 C-0.66 9.67 -1.32 9.34 -2 9 C-1.835 8.236875 -1.67 7.47375 -1.5 6.6875 C-0.90854604 3.96403764 -0.90854604 3.96403764 -1 1 C-0.67 0.67 -0.34 0.34 0 0 Z " fill="#C54246" transform="translate(79,37)"/>
</svg>
